<?xml version="1.0" encoding="utf-8"?>
<!-- Generator: Adobe Illustrator 18.1.1, SVG Export Plug-In . SVG Version: 6.00 Build 0)  -->
<svg version="1.1" id="Layer_1" xmlns="http://www.w3.org/2000/svg" xmlns:xlink="http://www.w3.org/1999/xlink" x="0px" y="0px"
	 viewBox="0 0 612 792" enable-background="new 0 0 612 792" xml:space="preserve">
<path fill="#B3B3B3" d="M306,107.6l-272,95.7l43,356.4l229.3,126.1L536.8,558l43-356.4L306,107.6z"/>
<path fill="#B63032" d="M552.6,222.2l-247.3-84.3v517.8L512.6,541L552.6,222.2z"/>
<path fill="#E23337" d="M64.5,223.7l36.8,318.8l204,113.2V137.9L64.5,223.7z"/>
<path fill="#F3F3F3" d="M362.7,395.4l-56.9-118.8l-50.1,118.8H362.7z M384.3,445.3H233.6l-33.7,84.4l-62.7,1.2l168.2-374.2
	l174.1,374.2h-58.1L384.3,445.3z"/>
<path fill="#B3B3B3" d="M305.3,156.7l0.4,120l56.8,118.8h-57.1l-0.1,49.8l79,0.1l36.9,85.5l60,1.1L305.3,156.7z"/>
</svg>
