<?xml version="1.0" encoding="utf-8"?>
<!-- Generator: Adobe Illustrator 18.1.1, SVG Export Plug-In . SVG Version: 6.00 Build 0)  -->
<svg version="1.1" id="Layer_1" xmlns="http://www.w3.org/2000/svg" xmlns:xlink="http://www.w3.org/1999/xlink" x="0px" y="0px"
	 viewBox="0 0 612 792" enable-background="new 0 0 612 792" xml:space="preserve">
<g>
	<g>
		<g>
			<g>
				<path fill="#577FC0" d="M597.4,324.2c12.8,21.6,13,44.5,1.8,66.8c-7.6,15.2-18.1,28.8-27.5,42.9c-7.6-6.6-14.4-13.9-21.8-20.7
					c-15-13.6-29.4-28-44.2-41.9c-3.2-3-5.4-6.1-4.7-10.7c0.2-1.3,0.3-2.7-1.5-3.2c-1.4-3.1-3.8-4.7-7-5.8
					c-16.4-5.8-32.8-11.7-49.2-17.7c0-1.3-1-2-1.7-2.9c-8.5-10.2-17.1-20.4-25.5-30.7c-10.8-13.2-21.5-26.6-32.2-39.9
					c-12.3-15.2-24.5-30.5-37-45.6c-3.8-4.6-7.1-9.8-12.1-13.3c-3.2-7.2-6.5-14.4-9.5-21.7c-1.5-3.7-3.9-5.6-7.8-5.6
					c-4.8,0-9.6,0.1-14.3-0.2c-5.9-0.4-9.1,2.4-11.3,7.6c-4.8,11.2-10,22.2-14.8,33.5c-3.7,8.7-7.8,17.2-10.8,26.5
					c6.5-1,12.5-1.9,18.5-2.8c2.1,5.4,4.7,10.6,5.1,16.5c-0.8,0.2-1.5,0.5-2.3,0.7c-30.9,5.9-55.2,22-72.8,48
					c-10,14.6-15.3,31-17.9,48.3c-5.5-1.1-10.2-4.1-15.4-6c-0.1-3.9-0.3-7.9-0.1-11.9c0.1-3.1-0.9-3.7-3.8-2.7
					c-19.1,6.9-38.2,13.7-57.2,20.5c-3.7,1.3-5.6,3.9-5.7,7.8c0,6.6-0.2,13.2,0,19.8c0.1,4.9,2.6,7.1,7.5,7.3
					c1.3,0.1,2.6,0.2,3.9,0.2c3.4,4.5,8.2,7.5,12.3,11.3c9.3,8.6,18.9,16.9,28.4,25.4c13.4,11.9,27,23.7,40.4,35.6
					c9.7,8.6,19.4,17.4,29.1,26c13.4,11.9,27,23.7,40.4,35.6c10,8.9,19.8,17.9,29.8,26.7c13.9,12.4,27.9,24.7,41.8,36.9
					c6.9,6.1,14.2,11.8,20.8,18.1c7.5,7.2,15.9,13.3,22.9,21c-1.6,0-3.3,0.2-5,0.2c-69.5,0-138.9,0-208.4,0.1
					c-11.4,0-19.9-4.9-25.7-14.1c-28.3-44.6-56.4-89.4-84.6-134.1c-17-26.8-35.2-52.9-50.9-80.3c-13.5-23.7-14.2-49,0.7-72.9
					c32.4-52,65.2-103.8,97.8-155.7c11.8-18.7,23.5-37.5,35.1-56.4c6.4-10.5,15.3-15.3,27.9-15.3c85.3,0.3,170.7,0.3,256,0
					c13.1,0,22,4.8,28.7,15.7c15.4,25,30.8,50.1,46.8,74.8c15,23.1,29.6,46.6,44.3,69.9C569.1,278.5,583.8,301,597.4,324.2z"/>
				<path fill="#4F78BC" d="M571.8,433.9c-8.1,13-16,26.1-24.2,39.1c-27.6,44-55.4,87.9-83,131.9c-5.6,9-12.3,16.3-23.2,18.6
					c-1.1,0.2-2.3,0.5-3.4,0.5c-15.4,0-30.7-0.1-46.1-0.1c-7-7.7-15.4-13.9-22.9-21c-6.6-6.4-13.9-12.1-20.8-18.1
					c-14-12.3-27.9-24.6-41.8-36.9c-10-8.9-19.8-17.9-29.8-26.7c-13.4-11.9-27-23.7-40.4-35.6c-9.7-8.6-19.4-17.4-29.1-26
					c-13.4-11.9-27-23.7-40.4-35.6c-9.5-8.4-19-16.8-28.4-25.4c-4.1-3.8-8.9-6.8-12.3-11.3c15.3-0.1,30.7-0.1,46-0.2
					c7,0,9.1-2.1,9.1-9.2c0.1-10.5,0.1-21.1,0.2-31.6c5.2,1.9,9.9,4.9,15.4,6c-0.6,11.7-0.6,23.4,1.7,35
					c11.6,57.4,67.3,95.7,122.7,87.9c17.8-2.5,34.3-8.4,48.9-18.9c34.9-25.2,51.5-59.6,47.3-102.3c-4.2-42.3-27.2-72.6-65.8-90.5
					c-19.6-9.1-40.3-10.9-61.6-8.2c-0.4-5.9-3-11.1-5.1-16.5c15.8-2.4,31.6-1.6,47.4,0.1c6.3,0.7,12.5,2.3,19.6,2.4
					c-5.8-13.6-11.4-26.7-16.9-39.7c5,3.5,8.3,8.7,12.1,13.3c12.4,15.1,24.7,30.3,37,45.6c10.7,13.3,21.4,26.7,32.2,39.9
					c8.4,10.3,17,20.5,25.5,30.7c0.7,0.9,1.7,1.6,1.7,2.9c-1.9-0.6-3.9-1.1-5.6-1.9c-3.4-1.6-4.6-0.8-4.5,3.1
					c0.1,14.7-0.1,29.4-0.1,44.1c0,5.1,2.6,7.8,7.6,7.8c17.2,0.1,34.4,0.1,51.6,0c4.8,0,7.3-2.6,7.4-7.4c0.1-7.4,0-14.9-0.1-22.3
					c1.7,0.5,1.7,2,1.5,3.2c-0.7,4.6,1.4,7.7,4.7,10.7c14.8,13.9,29.2,28.2,44.2,41.9C557.4,420,564.2,427.4,571.8,433.9z"/>
				<path fill="#FDFEFF" d="M499.6,357.4c0,7.4,0.2,14.9,0.1,22.3c-0.1,4.8-2.6,7.4-7.4,7.4c-17.2,0.1-34.4,0.1-51.6,0
					c-5,0-7.6-2.7-7.6-7.8c0-14.7,0.2-29.4,0.1-44.1c0-3.9,1.1-4.7,4.5-3.1c1.8,0.8,3.8,1.3,5.6,1.9c16.4,5.9,32.8,11.8,49.2,17.7
					C495.8,352.7,498.2,354.4,499.6,357.4z"/>
				<path fill="#FDFEFF" d="M417.2,354c4.3,42.7-12.4,77.2-47.3,102.3c-14.5,10.5-31.1,16.4-48.9,18.9
					c-55.4,7.8-111.1-30.5-122.7-87.9c-2.3-11.6-2.3-23.3-1.7-35c2.6-17.3,8-33.7,17.9-48.3c17.7-26,41.9-42.1,72.8-48
					c0.8-0.2,1.6-0.5,2.3-0.7c21.2-2.6,42-0.8,61.6,8.2C390.1,281.5,413,311.7,417.2,354z M391.9,365.8c0.2-46.9-37.3-84.9-84-85.1
					c-47-0.2-85.3,37.8-85.2,84.5c0,46.5,37.7,84.3,84.2,84.5C353.8,450,391.7,412.5,391.9,365.8z"/>
				<path fill="#4F78BC" d="M307.9,280.8c46.7,0.2,84.2,38.2,84,85.1c-0.2,46.7-38.2,84.1-85.1,84c-46.4-0.2-84.1-38-84.2-84.5
					C222.6,318.5,260.9,280.5,307.9,280.8z M362,393c10.6-21.2,8.3-42-5.5-61.3c-4.4-6.1-4.7-6.2-9.7-0.7c-3,3.4-4.8,3.7-8.4,0.4
					c-17.1-15.1-42.7-14.5-59.2,0.9c-16.7,15.5-19.4,40.9-6.1,59.1c1.8,2.5,5.6,5.2,5.3,7.2c-0.5,2.7-3.9,5-6.4,7.2
					c-2.6,2.2-1.9,3.5,0.4,5.3c11,9.1,23.5,13.9,40.7,14C333.4,424.3,351.4,414.1,362,393z"/>
				<path fill="#FBFEFF" d="M356.4,331.8c13.8,19.3,16.1,40,5.5,61.3c-10.5,21.1-28.6,31.2-49,32.2c-17.2-0.2-29.7-5-40.7-14
					c-2.2-1.8-2.9-3.2-0.4-5.3c2.5-2.1,6-4.5,6.4-7.2c0.3-2-3.5-4.7-5.3-7.2c-13.3-18.1-10.6-43.5,6.1-59.1
					c16.5-15.4,42.1-15.9,59.2-0.9c3.7,3.2,5.4,2.9,8.4-0.4C351.7,325.6,352.1,325.7,356.4,331.8z M309.4,399.8
					c18.8,0,33.9-15.4,33.8-34.3c-0.1-19.1-15-34.2-33.9-34.2c-19,0-34.4,15.6-34.2,34.5C275.3,384.6,290.7,399.8,309.4,399.8z"/>
				<path fill="#4F78BC" d="M343.3,365.5c0,18.9-15.1,34.2-33.8,34.3c-18.8,0-34.1-15.2-34.3-33.9c-0.2-19,15.2-34.5,34.2-34.5
					C328.3,331.3,343.2,346.4,343.3,365.5z"/>
				<path fill="#FDFEFF" d="M351.8,241.2c-7.1,0-13.3-1.7-19.6-2.4c-15.8-1.7-31.6-2.5-47.4-0.1c-6,0.9-12,1.8-18.5,2.8
					c3-9.3,7.1-17.9,10.8-26.5c4.8-11.2,10-22.2,14.8-33.5c2.2-5.2,5.4-7.9,11.3-7.6c4.8,0.3,9.6,0.1,14.3,0.2
					c3.9,0,6.3,1.9,7.8,5.6c3,7.3,6.3,14.5,9.5,21.7C340.4,214.6,346,227.6,351.8,241.2z"/>
				<path fill="#FDFEFF" d="M181.3,346.3c-0.1,10.5-0.1,21.1-0.2,31.6c-0.1,7.1-2.2,9.2-9.1,9.2c-15.3,0.1-30.7,0.2-46,0.2
					c-1.3-0.1-2.6-0.2-3.9-0.2c-4.9-0.3-7.3-2.5-7.5-7.3c-0.2-6.6-0.1-13.2,0-19.8c0-3.9,2-6.5,5.7-7.8
					c19.1-6.8,38.2-13.6,57.2-20.5c2.9-1,3.9-0.3,3.8,2.7C181.1,338.4,181.3,342.4,181.3,346.3z"/>
			</g>
		</g>
	</g>
</g>
</svg>
