<?xml version="1.0" encoding="utf-8"?>
<!-- Generator: Adobe Illustrator 18.1.1, SVG Export Plug-In . SVG Version: 6.00 Build 0)  -->
<svg version="1.1" id="Layer_1" xmlns="http://www.w3.org/2000/svg" xmlns:xlink="http://www.w3.org/1999/xlink" x="0px" y="0px"
	 viewBox="0 0 612 792" enable-background="new 0 0 612 792" xml:space="preserve">
<path fill="#010101" fill-opacity="0.1" d="M496.7,460.2c0-94.8-76.9-171.7-171.7-171.7s-171.7,76.9-171.7,171.7h49.1
	c0-67.7,54.9-122.6,122.6-122.6s122.6,54.9,122.6,122.6"/>
<g>
	
		<radialGradient id="SVGID_1_" cx="1.5079" cy="792.9577" r="0.8998" gradientTransform="matrix(245.3452 0 0 -245.3452 -46.1993 194848.1719)" gradientUnits="userSpaceOnUse">
		<stop  offset="0.1" style="stop-color:#81B3DF"/>
		<stop  offset="0.9" style="stop-color:#0E5C95"/>
	</radialGradient>
	<circle fill="url(#SVGID_1_)" cx="323.8" cy="410.2" r="110.4"/>
	
		<radialGradient id="SVGID_2_" cx="1.5079" cy="792.5546" r="9.365083e-002" gradientTransform="matrix(245.3452 0 0 -245.3452 -46.1993 194848.1719)" gradientUnits="userSpaceOnUse">
		<stop  offset="0" style="stop-color:#F6F1EF"/>
		<stop  offset="1" style="stop-color:#DEDEDD"/>
	</radialGradient>
	<path fill="url(#SVGID_2_)" d="M323.8,525.1c-63.3,0-114.9-51.5-114.9-114.9s51.5-114.9,114.9-114.9c63.3,0,114.9,51.5,114.9,114.9
		S387.1,525.1,323.8,525.1z M323.8,304.3c-58.4,0-105.9,47.5-105.9,105.9s47.5,105.9,105.9,105.9s105.9-47.5,105.9-105.9
		S382.1,304.3,323.8,304.3z"/>
</g>
<radialGradient id="SVGID_3_" cx="1.5016" cy="792.9175" r="0.4499" gradientTransform="matrix(526.1292 0 0 -346.6912 -456.4711 275033.5313)" gradientUnits="userSpaceOnUse">
	<stop  offset="0" style="stop-color:#EF6B5A"/>
	<stop  offset="1" style="stop-color:#DF2628"/>
</radialGradient>
<path fill="url(#SVGID_3_)" d="M570.3,288.5C502.8,152.6,337.9,97.2,202,164.8c-42.4,21.1-78.6,52.7-105.1,91.9l110.4,191.3
	c-20.3-64.6,15.6-133.5,80.2-153.8c11.4-3.6,23.2-5.5,35.1-5.6"/>
<radialGradient id="SVGID_4_" cx="1.6641" cy="792.6981" r="0.6839" gradientTransform="matrix(408.8576 0 0 -474.3341 -390.9435 376388.375)" gradientUnits="userSpaceOnUse">
	<stop  offset="0.65" style="stop-color:#4DB749"/>
	<stop  offset="1" style="stop-color:#398C42"/>
</radialGradient>
<path fill="url(#SVGID_4_)" d="M96.9,256.6c-84.5,126-50.8,296.7,75.2,381.2c39,26.1,84,41.9,130.8,45.6l115.3-196.2
	c-43.1,52.3-120.4,59.7-172.7,16.6c-17.7-14.6-31-34-38.3-55.8"/>
<radialGradient id="SVGID_5_" cx="1.3369" cy="792.7486" r="0.7199" gradientTransform="matrix(328.3353 0 0 -439.7786 -29.6883 349021.2813)" gradientUnits="userSpaceOnUse">
	<stop  offset="0.6" style="stop-color:#FCD20D"/>
	<stop  offset="0.7" style="stop-color:#F6C61B"/>
	<stop  offset="1" style="stop-color:#BC832B"/>
</radialGradient>
<path fill="url(#SVGID_5_)" d="M302.9,683.4c151.3,11.4,283.2-101.9,294.7-253.2c3.7-48.8-5.7-97.7-27.3-141.7H322.5
	c67.7,0.3,122.4,55.5,122.1,123.2c-0.1,27.4-9.4,54-26.4,75.5"/>
<path opacity="7.500000e-002" fill="#010101" enable-background="new    " d="M96.9,256.6l110.4,191.3c-8.2-27.5-6.4-57,4.9-83.4
	L101.8,249.3"/>
<path opacity="5.000000e-002" fill="#010101" enable-background="new    " d="M302.9,683.4l115.3-196.2
	c-18.2,21.7-43.3,36.4-71.1,41.7L298,683.4"/>
<path opacity="5.000000e-002" fill="#010101" enable-background="new    " d="M570.3,288.5H322.5c37.3,0.2,72.5,17.3,95.7,46.6
	l157-39.2"/>
</svg>
