<?xml version="1.0" encoding="utf-8"?>
<!-- Generator: Adobe Illustrator 18.1.1, SVG Export Plug-In . SVG Version: 6.00 Build 0)  -->
<svg version="1.1" id="Layer_1" xmlns="http://www.w3.org/2000/svg" xmlns:xlink="http://www.w3.org/1999/xlink" x="0px" y="0px"
	 viewBox="-257 349 96 96" enable-background="new -257 349 96 96" xml:space="preserve">
<g id="Label">
</g>
<g>
	<g>
		<g>
			<g id="Icon">
				<defs>
					<circle id="SVGID_1_" cx="-209" cy="397" r="48"/>
				</defs>
				<clipPath id="SVGID_2_">
					<use xlink:href="#SVGID_1_"  overflow="visible"/>
				</clipPath>
				<g clip-path="url(#SVGID_2_)">
					<g>
						<path fill="#FFCD40" d="M-209,369v28l-2.3,47.9c0.8,0,1.5,0.1,2.3,0.1c26.5,0,48-21.5,48-48c0-7.9-1.9-15.4-5.3-22L-209,369z"
							/>
						
							<linearGradient id="SVGID_3_" gradientUnits="userSpaceOnUse" x1="-196.8391" y1="424.5984" x2="-189.1775" y2="391.0454" gradientTransform="matrix(1 0 0 -1 0 796)">
							<stop  offset="0" style="stop-color:#EA6100;stop-opacity:0.3"/>
							<stop  offset="0.66" style="stop-color:#EA6100;stop-opacity:0"/>
						</linearGradient>
						<path fill="url(#SVGID_3_)" d="M-209,369v28l-2.3,47.9c0.8,0,1.5,0.1,2.3,0.1c26.5,0,48-21.5,48-48c0-7.9-1.9-15.4-5.3-22
							L-209,369z"/>
					</g>
					
						<radialGradient id="SVGID_4_" cx="367.1667" cy="421.0286" r="42.5077" gradientTransform="matrix(1 0 0 -1 -576 796)" gradientUnits="userSpaceOnUse">
						<stop  offset="0" style="stop-color:#3E2723;stop-opacity:0.2"/>
						<stop  offset="1" style="stop-color:#3E2723;stop-opacity:0"/>
					</radialGradient>
					<polygon fill="url(#SVGID_4_)" points="-209,375 -209,386.4 -166.4,375 					"/>
					<g>
						<g>
							
								<image overflow="visible" opacity="0.2" enable-background="new    " width="96" height="72" xlink:href="9651B16D7DEB32AF.png"  transform="matrix(1 0 0 1 -254 344)">
							</image>
							<path fill="#DB4437" d="M-209,397v-22h42.7c-8-15.4-24.1-26-42.7-26c-16.9,0-31.8,8.8-40.4,22.1V408h21.3L-209,397z"/>
						</g>
						
							<linearGradient id="SVGID_5_" gradientUnits="userSpaceOnUse" x1="-241.4277" y1="403.6148" x2="-213.9712" y2="421.5069" gradientTransform="matrix(1 0 0 -1 0 796)">
							<stop  offset="0" style="stop-color:#A52714;stop-opacity:0.6"/>
							<stop  offset="0.66" style="stop-color:#A52714;stop-opacity:0"/>
						</linearGradient>
						<path fill="url(#SVGID_5_)" d="M-209,397v-22h42.7c-8-15.4-24.1-26-42.7-26c-16.9,0-31.8,8.8-40.4,22.1V408h21.3L-209,397z"/>
					</g>
					<g>
						<g>
							<defs>
								<path id="SVGID_6_" d="M-209,397v-22h42.7c-8-15.4-24.1-26-42.7-26c-16.9,0-31.8,8.8-40.4,22.1V408h21.3L-209,397z"/>
							</defs>
							<clipPath id="SVGID_7_">
								<use xlink:href="#SVGID_6_"  overflow="visible"/>
							</clipPath>
							<g clip-path="url(#SVGID_7_)">
								<g>
									
										<image overflow="visible" opacity="0.25" enable-background="new    " width="80" height="86" xlink:href="9651B16D7DEB32AD.png"  transform="matrix(1 0 0 1 -261 367)">
									</image>
									<path fill="#0F9D58" d="M-209,397l-19.1,11l-21.3-36.9c-4.8,7.5-7.6,16.4-7.6,25.9c0,25.8,20.3,46.8,45.7,47.9l21.3-36.9
										L-209,397z"/>
								</g>
								
									<linearGradient id="SVGID_8_" gradientUnits="userSpaceOnUse" x1="-197.0974" y1="366.6428" x2="-230.2043" y2="385.066" gradientTransform="matrix(1 0 0 -1 0 796)">
									<stop  offset="0" style="stop-color:#055524;stop-opacity:0.4"/>
									<stop  offset="0.33" style="stop-color:#055524;stop-opacity:0"/>
								</linearGradient>
								<path fill="url(#SVGID_8_)" d="M-209,397l-19.1,11l-21.3-36.9c-4.8,7.5-7.6,16.4-7.6,25.9c0,25.8,20.3,46.8,45.7,47.9
									l21.3-36.9L-209,397z"/>
							</g>
						</g>
						
							<radialGradient id="SVGID_9_" cx="326.5679" cy="424.8982" r="42.6303" gradientTransform="matrix(1 0 0 -1 -576 796)" gradientUnits="userSpaceOnUse">
							<stop  offset="0" style="stop-color:#3E2723;stop-opacity:0.2"/>
							<stop  offset="1" style="stop-color:#3E2723;stop-opacity:0"/>
						</radialGradient>
						<polygon fill="url(#SVGID_9_)" points="-249.4,371.1 -218.1,402.3 -228.1,408 						"/>
						<g>
							<path fill="#0F9D58" d="M-209,397l-19.1,11l-21.3-36.9c-4.8,7.5-7.6,16.4-7.6,25.9c0,25.8,20.3,46.8,45.7,47.9l21.3-36.9
								L-209,397z"/>
							
								<linearGradient id="SVGID_10_" gradientUnits="userSpaceOnUse" x1="-197.0974" y1="366.6428" x2="-230.2043" y2="385.066" gradientTransform="matrix(1 0 0 -1 0 796)">
								<stop  offset="0" style="stop-color:#055524;stop-opacity:0.4"/>
								<stop  offset="0.33" style="stop-color:#055524;stop-opacity:0"/>
							</linearGradient>
							<path fill="url(#SVGID_10_)" d="M-209,397l-19.1,11l-21.3-36.9c-4.8,7.5-7.6,16.4-7.6,25.9c0,25.8,20.3,46.8,45.7,47.9
								l21.3-36.9L-209,397z"/>
						</g>
						<g>
							<g>
								<defs>
									<path id="SVGID_11_" d="M-209,397l-19.1,11l-21.3-36.9c-4.8,7.5-7.6,16.4-7.6,25.9c0,25.8,20.3,46.8,45.7,47.9l21.3-36.9
										L-209,397z"/>
								</defs>
								<clipPath id="SVGID_12_">
									<use xlink:href="#SVGID_11_"  overflow="visible"/>
								</clipPath>
								<g clip-path="url(#SVGID_12_)">
									
										<image overflow="visible" opacity="0.2" enable-background="new    " width="63" height="88" xlink:href="9651B16D7DEB32B3.png"  transform="matrix(1.5238 0 0 1.0909 -257 349)">
									</image>
									<g>
										<path fill="#FFCD40" d="M-166.3,375l-42.7-6v28l19.1,11l-21.3,36.9c0.8,0,1.5,0.1,2.3,0.1c26.5,0,48-21.5,48-48
											C-161,389.1-162.9,381.6-166.3,375z"/>
										
											<linearGradient id="SVGID_13_" gradientUnits="userSpaceOnUse" x1="-196.4781" y1="423.0175" x2="-188.8165" y2="389.4645" gradientTransform="matrix(1 0 0 -1 0 796)">
											<stop  offset="0" style="stop-color:#EA6100;stop-opacity:0.3"/>
											<stop  offset="0.66" style="stop-color:#EA6100;stop-opacity:0"/>
										</linearGradient>
										<path fill="url(#SVGID_13_)" d="M-166.3,375l-42.7-6v28l19.1,11l-21.3,36.9c0.8,0,1.5,0.1,2.3,0.1c26.5,0,48-21.5,48-48
											C-161,389.1-162.9,381.6-166.3,375z"/>
									</g>
								</g>
							</g>
							
								<radialGradient id="SVGID_14_" cx="366.9306" cy="398.9245" r="47.9764" gradientTransform="matrix(1 0 0 -1 -576 796)" gradientUnits="userSpaceOnUse">
								<stop  offset="0" style="stop-color:#263238;stop-opacity:0.2"/>
								<stop  offset="1" style="stop-color:#263238;stop-opacity:0"/>
							</radialGradient>
							<polygon fill="url(#SVGID_14_)" points="-211.3,444.9 -199.8,402.3 -189.9,408 							"/>
							<g>
								<g>
									<path fill="#3E2723" fill-opacity="0.1" d="M-249.4,371.1l21.3,36.9l0.4-0.2l-21.4-37.1
										C-249.2,370.8-249.3,370.9-249.4,371.1z"/>
									<path fill="#3E2723" fill-opacity="0.2" d="M-209,374.5c-12.1,0-22,9.9-22,22c0,0.1,0,0.1,0,0.2c0.2-12,9.9-21.7,22-21.7
										h42.7c-0.1-0.2-0.2-0.3-0.3-0.5H-209z"/>
									<path fill="#3E2723" fill-opacity="0.1" d="M-208.5,375c-0.1,0-0.2,0-0.2,0c12,0.1,21.8,9.9,21.8,22s-9.7,21.9-21.8,22
										c0.1,0,0.2,0,0.2,0c12.1,0,22-9.9,22-22S-196.4,375-208.5,375z"/>
									<path fill="#FFFFFF" fill-opacity="0.2" d="M-211.3,444.9c0.2,0,0.3,0,0.5,0l20.9-36.2c1.8-3.2,2.9-6.9,2.9-10.9
										c0-0.2,0-0.3,0-0.5c-0.1,3.9-1.1,7.5-2.9,10.6L-211.3,444.9z"/>
									<path fill="#263238" fill-opacity="0.15" d="M-211.8,444.9c0.2,0,0.3,0,0.5,0l21.3-36.9l-0.4-0.2L-211.8,444.9z"/>
									<path fill="#FFFFFF" fill-opacity="0.1" d="M-228.1,408.5c3.8,6.6,10.9,11,19.1,11c7,0,13.2-3.3,17.2-8.3l1.8-3.2l0,0
										c-3.8,6.6-10.9,11-19.1,11s-15.2-4.4-19.1-11l-21.3-36.9c0,0.1-0.1,0.2-0.1,0.2L-228.1,408.5z"/>
								</g>
								<g>
									<path fill="#FFFFFF" fill-opacity="0.2" d="M-209,349.5c26.4,0,47.9,21.4,48,47.8c0-0.1,0-0.2,0-0.2c0-26.5-21.5-48-48-48
										s-48,21.5-48,48c0,0.1,0,0.2,0,0.2C-256.9,370.9-235.4,349.5-209,349.5z"/>
									<path fill="#3E2723" fill-opacity="0.2" d="M-209,444.5c26.4,0,47.9-21.4,48-47.8c0,0.1,0,0.2,0,0.2c0,26.5-21.5,48-48,48
										s-48-21.5-48-48c0-0.1,0-0.2,0-0.2C-256.9,423.1-235.4,444.5-209,444.5z"/>
								</g>
							</g>
							<g>
								<g>
									<circle fill="#F1F1F1" cx="-209" cy="397" r="22"/>
								</g>
								<g>
									<circle fill="#4285F4" cx="-209" cy="397" r="18"/>
								</g>
							</g>
						</g>
					</g>
					
						<radialGradient id="SVGID_15_" cx="333.03" cy="433.0794" r="96.1805" gradientTransform="matrix(1 0 0 -1 -576 796)" gradientUnits="userSpaceOnUse">
						<stop  offset="0" style="stop-color:#FFFFFF"/>
						<stop  offset="1" style="stop-color:#FFFFFF;stop-opacity:0"/>
					</radialGradient>
					<circle fill="url(#SVGID_15_)" fill-opacity="5.000000e-02" cx="-209" cy="397" r="48"/>
					<rect x="-257" y="349" fill="none" width="96" height="96"/>
				</g>
			</g>
		</g>
	</g>
</g>
</svg>
