<?xml version="1.0" encoding="utf-8"?>
<!-- Generator: Adobe Illustrator 18.1.1, SVG Export Plug-In . SVG Version: 6.00 Build 0)  -->
<svg version="1.1" id="Layer_1" xmlns="http://www.w3.org/2000/svg" xmlns:xlink="http://www.w3.org/1999/xlink" x="0px" y="0px"
	 viewBox="0 0 612 792" enable-background="new 0 0 612 792" xml:space="preserve">
<g>
	<path fill="#527EBE" d="M334.2,341.5c4.8,1.5,7.5,5.2,9.7,9.5c2.3,4.4,5.3,8.5,7.2,13.1c-0.9-0.2-1.9-0.6-2.8-0.6
		c-7.4,0-14.8,0-22.2,0.1c-12.5,0-24.9,0-37.4,0c-0.2,0.2-0.4,0.3-0.6,0.5c-0.4,0.7-0.9,1.3-1.3,2c-4,6.8-7.9,13.6-11.9,20.3
		c-3.2-3.6-7.1-6.4-10.6-9.7c-1.8-1.7-4-3.1-5.5-5.2c1.6-3.8,4-7.2,6-10.8c1.9-3.4,4-6.7,5.8-10.1c2.1-4,4.7-7.3,9-9
		C297.8,341.5,316,341.5,334.2,341.5z M282,355.3c1.5-0.2,2.7-1,2.8-2.7c0.1-1.7-1-2.8-2.6-2.8c-1.7-0.1-2.8,1-2.8,2.6
		C279.2,354.1,280.2,355,282,355.3z M335,352.6c-0.2-1.6-1-2.8-2.7-2.8c-1.6,0-2.7,0.9-2.8,2.6c-0.1,1.7,1,2.7,2.6,2.8
		C333.8,355.3,334.7,354.2,335,352.6z"/>
	<path fill="#DA4737" d="M352.6,366.4c4.8,8.3,9.7,16.5,14.4,24.8c1.9,3.3,1.7,6.8-0.2,10.1c-8.4,14.6-16.8,29.2-25.2,43.7
		c-2.1,3.6-5.4,5.4-9.5,5.4c-6.6,0-13.3-0.1-19.9-0.1c1.6-0.9,2.8-2.4,3.7-4c1.3-2.2,2.6-4.4,3.8-6.6c1.9-3.7,4.5-7.1,6.1-11
		c0.5-0.7,1-1.4,1.5-2.2c5.5-9.4,10.9-18.9,16.4-28.3c1-1.7,0.9-2.9,0-4.5c-4-6.8-7.9-13.7-11.8-20.5
		C338.7,370.8,345.5,368.3,352.6,366.4z M332.1,436.8c-1.7,0.2-2.7,1.1-2.6,2.8c0.1,1.7,1.1,2.7,2.8,2.6c1.7-0.1,2.6-1.1,2.6-2.8
		C334.8,437.7,333.8,436.9,332.1,436.8z M357.4,398.7c1.7-0.2,2.7-1.1,2.6-2.8c-0.1-1.6-1.1-2.7-2.8-2.6c-1.7,0-2.7,1.1-2.6,2.8
		C354.6,397.7,355.7,398.6,357.4,398.7z"/>
	<path fill="#F4B418" d="M310.2,450.3c-9.6,0-19.2,0.1-28.8,0c-3.8,0-6.8-1.8-8.7-5.1c-8.5-14.7-17-29.4-25.5-44.2
		c-1.8-3.2-1.9-6.7-0.2-9.9c3.4-6.1,7-12.2,10.6-18.2c-0.1,1.3,0,2.6,0.6,3.7c3.7,6.4,7.4,12.7,11.1,19c0.1,0.2,0.1,0.5,0.2,0.7
		c5.9,10.3,11.9,20.6,17.8,30.9c0.7,1.2,1.5,1.4,2.7,1.4c8.1,0,16.3,0,24.4,0C313.1,436,311.7,443.2,310.2,450.3z M282.1,436.8
		c-1.5,0.1-2.7,0.8-2.8,2.5c-0.2,1.6,0.8,2.8,2.4,3c1.7,0.2,2.8-0.8,3-2.4C284.9,438.1,283.9,437.1,282.1,436.8z M256.8,398.7
		c1.7-0.1,2.7-1,2.8-2.6c0-1.6-0.9-2.7-2.6-2.8c-1.7,0-2.7,0.9-2.8,2.6C254.1,397.6,255.1,398.5,256.8,398.7z"/>
	<path fill="#5172A6" d="M269.4,395.8c-3.7-6.3-7.4-12.7-11.1-19c-0.7-1.1-0.7-2.4-0.6-3.7c0.3-0.6,0.5-1.3,1.1-1.6
		c1.5,2.1,3.6,3.4,5.5,5.2c3.5,3.3,7.4,6.1,10.6,9.7C273.3,389.6,271.4,392.7,269.4,395.8z"/>
	<path fill="#D19B2A" d="M310.2,450.3c1.4-7.2,2.9-14.4,4.3-21.5c3.7,0,7.4,0,11.1,0c-1.6,3.9-4.1,7.3-6.1,11
		c-1.2,2.2-2.5,4.4-3.8,6.6c-0.9,1.6-2,3-3.7,4C311.5,450.3,310.9,450.3,310.2,450.3z"/>
	<path fill="#BF4436" d="M352.6,366.4c-7.1,1.9-14,4.5-20.9,6.8c-1.9-3.2-3.8-6.4-5.7-9.7c7.4,0,14.8-0.1,22.2-0.1
		c0.9,0,1.9,0.4,2.8,0.6c0,0,0,0,0,0c0.2,0.2,0.4,0.4,0.5,0.6C351.9,365.2,352.3,365.8,352.6,366.4z"/>
	<path fill="#527EBE" d="M351.6,364.6c-0.2-0.2-0.4-0.4-0.5-0.6C351.5,364,351.5,364.3,351.6,364.6z"/>
	<path fill="#CDCCCA" d="M326.1,363.5c1.9,3.2,3.8,6.4,5.7,9.7c3.9,6.8,7.8,13.7,11.8,20.5c1,1.6,1,2.9,0,4.5
		c-5.5,9.4-11,18.9-16.4,28.3c-0.4,0.8-1,1.4-1.5,2.2c-3.7,0-7.4,0-11.1,0c-8.1,0-16.3,0-24.4,0c-1.2,0-2-0.2-2.7-1.4
		c-5.9-10.3-11.9-20.6-17.8-30.9c-0.1-0.2-0.1-0.5-0.2-0.7c2-3,3.9-6.2,5.4-9.5c4-6.8,7.9-13.6,11.9-20.3c0.4-0.7,0.9-1.3,1.3-2
		c0.2-0.2,0.4-0.3,0.6-0.5C301.1,363.5,313.6,363.5,326.1,363.5z M323.2,396.2c0.8-8.8-7.7-16.6-15.9-16.5
		c-9.1,0.1-16.8,6.9-16.6,16.5c0.2,9.6,6.8,16,16.4,16.1C316.3,412.5,323.5,405,323.2,396.2z"/>
	<path fill="#F4F6FA" d="M282,355.3c-1.7-0.3-2.8-1.2-2.7-2.9c0.1-1.7,1.2-2.7,2.8-2.6c1.6,0.1,2.7,1.2,2.6,2.8
		C284.7,354.3,283.5,355.1,282,355.3z"/>
	<path fill="#F4F6FA" d="M335,352.6c-0.3,1.6-1.2,2.7-2.8,2.7c-1.6-0.1-2.7-1.1-2.6-2.8c0.1-1.7,1.2-2.7,2.8-2.6
		C333.9,349.8,334.8,350.9,335,352.6z"/>
	<path fill="#D8D3CB" d="M288.6,363.5c-0.2,0.2-0.4,0.3-0.6,0.5C288.2,363.9,288.4,363.7,288.6,363.5z"/>
	<path fill="#FCF6F4" d="M332.1,436.8c1.6,0.1,2.7,0.9,2.7,2.6c0,1.7-0.9,2.7-2.6,2.8c-1.7,0.1-2.7-0.9-2.8-2.6
		C329.4,437.9,330.5,437,332.1,436.8z"/>
	<path fill="#FCF6F4" d="M357.4,398.7c-1.7-0.1-2.8-1-2.8-2.6c0-1.6,0.9-2.7,2.6-2.8c1.7,0,2.7,1,2.8,2.6
		C360.1,397.6,359.1,398.5,357.4,398.7z"/>
	<path fill="#FEFBF4" d="M282.1,436.8c1.8,0.4,2.8,1.4,2.6,3c-0.2,1.6-1.3,2.6-3,2.4c-1.7-0.2-2.6-1.3-2.4-3
		C279.4,437.6,280.6,436.8,282.1,436.8z"/>
	<path fill="#FEFBF4" d="M256.8,398.7c-1.7-0.2-2.7-1.1-2.7-2.8c0.1-1.7,1.1-2.6,2.8-2.6c1.7,0,2.7,1.1,2.6,2.8
		C259.6,397.7,258.5,398.6,256.8,398.7z"/>
	<path fill="#FEFEFE" d="M323.2,396.2c0.3,8.8-7,16.2-16.1,16.1c-9.6-0.1-16.2-6.6-16.4-16.1c-0.2-9.5,7.4-16.4,16.6-16.5
		C315.5,379.7,324,387.4,323.2,396.2z"/>
</g>
</svg>
