<?xml version="1.0" encoding="utf-8"?>
<!-- Generator: Adobe Illustrator 18.1.1, SVG Export Plug-In . SVG Version: 6.00 Build 0)  -->
<svg version="1.1" id="Layer_1" xmlns="http://www.w3.org/2000/svg" xmlns:xlink="http://www.w3.org/1999/xlink" x="0px" y="0px"
	 viewBox="0 0 612 792" enable-background="new 0 0 612 792" xml:space="preserve">
<g>
	<g>
		<path fill="#FAA21B" d="M534,443.4c8.1,3.7,16.1,7.6,24.3,10.9c7.2,2.9,10.7,7.6,10.6,15.6c-0.2,24.9-0.2,49.8,0,74.7
			c0,7.4-3,12.1-9.9,15.1c-87,37.7-174,75.5-260.9,113.3c-5.6,2.4-10.6,2.4-16.2,0C195,635.2,108,597.4,21,559.7
			c-6.9-3-10-7.7-9.9-15.1c0.1-24.9,0.2-49.8,0-74.7c-0.1-7.9,3.3-12.7,10.6-15.6c8.2-3.3,16.2-7.2,24.3-10.9c1.9,0.7,3.9,1.2,5.8,2
			c18.9,7.9,37.7,15.9,56.5,23.8c10.6,5,21.2,10,31.8,15c-16.8,7.4-33.6,14.8-51.7,22.8c2.9,1.5,4.2,2.2,5.5,2.8
			c62.7,27.3,125.5,54.5,188.2,82c6,2.6,11.1,2.2,16.9-0.3c62.1-27.2,124.4-54.2,186.5-81.3c1.8-0.8,4.1-0.9,4.8-3.8
			c-16.7-7.4-33.5-14.7-50.3-22.1c14.7-6.8,29.5-13.5,44.2-20.3C500.8,457.1,517.4,450.2,534,443.4z"/>
		<path fill="#3D6DB5" d="M103.1,164.2c27-11.8,54.1-23.7,81.1-35.5c6.8-3,13.6-5.8,20.4-8.7c1,0.9,1.4,0.4,1.6-0.6
			c0.9-1.3,2.2-1.6,3.6-1.5c4.2,1.5,6.5-1.1,8.8-3.9c2.1-1.7,4.5-2.9,7.2-3.1c2.8,1.5,4.1-0.1,5.2-2.3c3.3-2.2,6.9-3.9,10.8-4.7
			c1.1,1.3,1.4,0.6,1.5-0.6c0,0-0.1,0.2-0.1,0.2c1.7,0.3,3.1,0.1,3.8-1.8c0.9-1.3,2.2-1.5,3.6-1.5c4.2,1.5,6.5-1.1,8.8-3.9
			c2.1-1.8,4.5-2.9,7.2-3.1c2.8,1.5,4.1-0.1,5.2-2.3c3.3-2.2,6.9-3.9,10.8-4.7c1.2,1.3,1.4,0.4,1.6-0.7c1-1.2,2.3-1.4,3.8-1.1
			c0.6,1,1.2,0.9,1.8-0.1c2-0.6,3.9-0.4,5.6,1c0.1,1.1,0.1,2.2,1.5,0.8c4,0.7,7.5,2.5,10.8,4.7c1.1,2.2,2.4,3.9,5.2,2.3
			c2.8,0.2,5.1,1.4,7.2,3.1c2.3,2.8,4.6,5.5,8.8,3.9c2.8,0.2,5.1,1.4,7.2,3c1,2.4,2.2,4.3,5.2,2.4c2.8,0.2,5.1,1.4,7.2,3.1
			c1.1,2.2,2.4,3.9,5.2,2.3c2.8,0.2,5.1,1.4,7.2,3.1c2.3,2.8,4.6,5.5,8.8,3.9c35.6,15.4,71.8,29.5,106.7,46.4
			c-5.7,2.6-6.5,6.6-3.8,12.1c8.6,17.7,12.6,36.7,15.7,55.9c0.9,5.6,3.5,11.7,0.3,17.6c-12.3-4.1-23.8-9.8-35.5-15.2
			c-0.9-2.5-2.1-4.6-5.2-2.5c-2.4-1-4.9-2-7.3-3c-1.3-2.9-2.9-5.8-3.8-8.9c-8.8-28.9-24.1-53.4-46.6-74.1
			c-36.2-33.2-78.8-41.9-125.5-35.9c-29.8,3.9-54.3,18.5-77.1,38.5c-20.5,17.9-31.1,40.5-41.2,64.1c-2.4,5.6-3.2,11.8-7.8,16.3
			c-3.4,2.1-6.9,4-10.9,4.6c-1.6-1.5-1.4-0.1-1.5,0.9c-12.5,5.6-25.1,11.3-37.6,16.9c3.5-25.2,6.3-50.5,18.1-73.7
			C109.8,172.2,112.3,166.5,103.1,164.2z"/>
		<path fill="#3C6DB5" d="M103.1,164.2c9.2,2.3,6.7,8,3.8,13.6c-11.7,23.2-14.6,48.5-18.1,73.7c0.1,0.5,0.3,1,0.4,1.5
			c-4.2,4.2,2.4,7.1,1.4,10.9c-0.1,17.4-0.6,34.7-1.2,52.1c-0.3,7.4-1.1,11.6-8,13.9c-11.8-4.7-23.6-9.5-35.4-14.2
			c-8.6-3.9-17.2-7.9-25.9-11.6c-6.2-2.7-9-7.1-9-13.8c0.1-25.5,0.1-51,0-76.4c0-6.2,2-11.1,7.9-13.6
			C47.1,188.1,75.1,176.2,103.1,164.2z"/>
		<path fill="#3C6DB5" d="M489,249.8c3.2-5.9,0.6-12.1-0.3-17.6c-3.1-19.1-7.1-38.2-15.7-55.9c-2.7-5.5-1.9-9.5,3.8-12.1
			c7.5,2.3,14.5,5.5,21.3,9.2c0.4,2.2,0.9,4.2,3.5,1.6c19.8,8.4,39.7,16.8,59.5,25.3c5.6,2.4,7.7,7,7.7,12.9c0,25.7,0,51.5,0,77.2
			c0,6.7-2.9,11.1-9.1,13.7c-8.7,3.7-17.2,7.7-25.8,11.6c-11.5,3.1-21.4,10.6-33.3,12.6c-4.2-2.4-7.7-5.2-7.8-10.8
			c-0.4-17.6-0.9-35.2-1.9-52.8c-0.2-3.9,3.2-7.8-0.2-11.6C490.1,251.9,489.6,250.9,489,249.8z"/>
		<path fill="#E81E27" d="M46,315.7c11.8,4.7,23.6,9.5,35.4,14.2c3.6,4,10.9,2.4,13.2,8.5c-5.1,12.2-3,25.6-6.9,38
			c-0.1,0.3,1.2,1.1,1.8,1.7c0,1,0,1.9,0,2.9c-1,0.7-2.1,1.3-1.8,2.7c4.3,20.7,4.8,42.1,12.6,62.2c2.9,7.6,7.9,14.6,7.9,23.3
			c-18.8-7.9-37.7-15.9-56.5-23.8c-1.9-0.8-3.8-1.3-5.8-2c-8.6-3.9-17-8-25.7-11.7c-6.3-2.6-9.1-7.1-9.1-13.7c0-25.7,0-51.4,0-77.1
			c0-6.6,2.8-11.1,9.1-13.7C29,323.6,37.5,319.6,46,315.7z"/>
		<path fill="#E81E27" d="M500.6,328.2c11.9-2,21.8-9.5,33.3-12.6c8.6,3.9,17.1,7.9,25.8,11.6c6.3,2.6,9.1,7,9.1,13.7
			c0,25.7,0,51.4,0,77.1c0,6.6-2.8,11.1-9.1,13.7c-8.7,3.6-17.1,7.8-25.7,11.7c-16.6,6.8-33.3,13.7-49.9,20.5
			c0.1-1.7-0.2-3.7,0.5-5.2c8.1-19.1,12.3-39.1,14.5-59.6c2.4-22.6,0.5-45-4.5-67.1C496.6,330.7,498.6,329.5,500.6,328.2z"/>
		<path fill="#3F6FB6" d="M329.2,100c-4.2,1.6-6.6-1.1-8.8-3.9C323.6,96.8,326.6,97.8,329.2,100z"/>
		<path fill="#3F6FB6" d="M259.6,96.2c-2.3,2.8-4.7,5.4-8.8,3.9C253.3,97.8,256.3,96.8,259.6,96.2z"/>
		<path fill="#3F6FB6" d="M218.6,114c-2.3,2.8-4.7,5.4-8.8,3.9C212.4,115.6,215.4,114.6,218.6,114z"/>
		<path fill="#3F6FB6" d="M370.1,117.8c-4.2,1.6-6.6-1.1-8.8-3.9C364.5,114.6,367.6,115.6,370.1,117.8z"/>
		<path fill="#3F6FB6" d="M313.1,93c-2.8,1.6-4.1-0.1-5.2-2.3C309.8,91,311.8,91.3,313.1,93z"/>
		<path fill="#3F6FB6" d="M272,90.7c-1.1,2.2-2.4,3.9-5.2,2.3C268.1,91.4,270.1,91,272,90.7z"/>
		<path fill="#3F6FB6" d="M341.6,105.4c-3,1.9-4.2,0-5.2-2.4C338.3,103.5,340.3,103.7,341.6,105.4z"/>
		<path fill="#3F6FB6" d="M231.1,108.5c-1.1,2.2-2.4,3.9-5.2,2.3C227.2,109.2,229.1,108.8,231.1,108.5z"/>
		<path fill="#3D6DB5" d="M501.7,175c-2.6,2.6-3.1,0.6-3.5-1.6C499.3,173.9,500.5,174.4,501.7,175z"/>
		<path fill="#3F6FB6" d="M354,110.8c-2.8,1.6-4.1-0.1-5.2-2.3C350.8,108.8,352.7,109.1,354,110.8z"/>
		<path fill="#3F6FB6" d="M247.1,101.6c-0.7,1.9-2.2,2.1-3.8,1.8C244.2,101.9,245.6,101.7,247.1,101.6z"/>
		<path fill="#3F6FB6" d="M297.1,86c-1.4,1.4-1.4,0.2-1.5-0.8C296,85.5,296.5,85.7,297.1,86z"/>
		<path fill="#3F6FB6" d="M284.4,85.3c-0.1,1.1-0.3,2-1.6,0.7C283.4,85.8,283.9,85.6,284.4,85.3z"/>
		<path fill="#3F6FB6" d="M290,84.2c-0.5,1-1.1,1.1-1.8,0.1C288.8,84.2,289.4,84.2,290,84.2z"/>
		<path fill="#3F6FB6" d="M206.2,119.4c-0.2,1-0.6,1.5-1.6,0.6C205.1,119.8,205.7,119.6,206.2,119.4z"/>
		<path fill="#3F6FB6" d="M243.4,103.2c-0.1,1.2-0.4,1.9-1.5,0.6C242.3,103.3,242.8,103.1,243.4,103.2z"/>
		<path fill="#ED1C27" d="M382.6,508c-1.9,0.9-3.7,1.8-5.6,2.6c-0.3-4.2,1.4-7.4,4.5-10c4.1-3.4,8.2-6.7,12.1-10.3
			c25.9-23.9,38.6-54.9,47.6-87.9c16.4-7.5,32.8-15,50.3-22.9c-17.8-8.2-34.3-15.7-50.8-23.3c2.9-1.4,5.7-2.9,8.7-4.2
			c15.1-6.7,30.3-13.4,45.4-20c5,22.1,6.8,44.5,4.5,67.1c-2.1,20.5-6.4,40.5-14.5,59.6c-0.6,1.5-0.3,3.5-0.5,5.2
			c-14.7,6.8-29.5,13.5-44.2,20.3c-7.9,3.1-15.8,6.1-23.6,9.2c-2.7-1.4-4,0.2-5.2,2.3c-2.1,1.8-4.5,2.9-7.2,3.1
			c-2.7-1.5-4,0.1-5.1,2.2c0,0,0.2-0.1,0.2-0.1c-1.7-0.3-3.1-0.1-3.9,1.7c-0.8,1.3-2.2,1.6-3.6,1.6c-2.8-1.6-4.1,0-5.1,2.3
			c0,0,0.2-0.2,0.2-0.2C384.8,506,383.3,506.2,382.6,508z"/>
		<path fill="#ED1C27" d="M152.1,488.4c-4-1.4-8.1-2.8-12.1-4.2c-10.6-5-21.2-10-31.8-15c0-8.6-5-15.7-7.9-23.3
			c-7.8-20.1-8.3-41.5-12.6-62.2c-0.3-1.4,0.8-2.1,1.8-2.7c9.8,3,18.9,7.5,28,11.9c0.1,1,0,2.3,1.5,0.8c4.5,1,8.6,2.8,12.4,5.4
			c2.4,6.9,8.8,11.5,10.5,19.1c6.3,28.9,21.3,52.9,42.1,73.6c2.1,2.1,5.5,3.6,5.3,8c-3.4,1.2-7.4-6.8-10.2,0.4l-0.8,0l-0.6-0.5
			c-0.2-1.1-0.2-2.5-1.8-1c-4-0.6-7.5-2.5-10.9-4.6c-1-2.4-2.2-4.3-5.2-2.4c-1.4,0-2.8-0.2-3.6-1.6
			C155.5,488.3,153.9,488.2,152.1,488.4z"/>
		<path fill="#3F6FB6" d="M138.9,229.1c4.6-4.5,5.4-10.7,7.8-16.3c10.1-23.6,20.7-46.2,41.2-64.1c22.8-20,47.3-34.6,77.1-38.5
			c46.7-6.1,89.3,2.7,125.5,35.9c22.6,20.7,37.8,45.2,46.6,74.1c0.9,3.1,2.5,5.9,3.8,8.9c-46.4-20.1-93-39.9-139.3-60.3
			c-8.4-3.7-15.2-3.6-23.5,0.1C231.9,189.2,185.4,209,138.9,229.1z"/>
		<path fill="#3F6FB6" d="M453.5,234.5c-1.7-0.8-3.5-1.7-5.2-2.5C451.4,230,452.5,232,453.5,234.5z"/>
		<path fill="#3F6FB6" d="M128,233.7c-0.5,0.3-1,0.6-1.5,0.9C126.6,233.6,126.4,232.2,128,233.7z"/>
		<path fill="#3D6EB6" d="M97.7,256.8c9.3,3,18.2,7.2,27,11.5c0.1,1,0,2.4,1.5,0.9c2.8,0.2,5.1,1.4,7.3,3.1
			c2.8,7.4,0.4,15.7,2.3,22.6c4.1,15.1,6.6,30.8,15.5,44.5c10.4,16.1,9.5,17-9,17c-2.1,0-4.3-0.1-6.4-0.1
			c-12.9-7.9-26.8-13.4-41.2-17.9c-2.3-6.1-9.6-4.5-13.2-8.5c6.9-2.3,7.7-6.5,8-13.9c0.7-17.4,1.1-34.7,1.2-52.1
			C94.7,263.3,98.2,262,97.7,256.8z"/>
		<path fill="#3D6DB5" d="M97.7,256.8c0.4,5.2-3,6.5-7.1,7.1c0.9-3.8-5.6-6.6-1.4-10.9C92.3,253.7,95.2,254.8,97.7,256.8z"/>
		<path fill="#3D6EB6" d="M455.3,268.4c3.5-1.9,6.9-3.9,10.9-4.5c1.6,1.5,1.4,0.1,1.5-0.9c7.7-3.3,15.4-6.6,23.1-9.9
			c3.4,3.8-0.1,7.7,0.2,11.6c1,17.6,1.5,35.2,1.9,52.8c0.1,5.6,3.6,8.4,7.8,10.8c-2,1.2-4,2.5-6,3.7c-15.1,6.7-30.3,13.3-45.4,20
			c-2.9,1.3-5.8,2.8-8.7,4.2c-1,0.1-1.9,0.2-2.9,0.2c0.2-4.2-7.8-5.2-4.5-10.3c7.5-11.8,6.2-26.3,12.1-38.6c2.6-5.4,3-11.3,3.3-17.3
			C448.9,282.5,448.9,274.4,455.3,268.4z"/>
		<path fill="#ED1C27" d="M117.5,366.1c-3.4,2.1-6.9,3.9-10.9,4.6c-1.4-1.4-1.4-0.2-1.5,0.8c-4.7,3.3-11.3,2.2-15.5,6.6
			c-0.6-0.6-2-1.4-1.8-1.7c3.9-12.4,1.8-25.9,6.9-38c14.4,4.5,28.3,10,41.2,17.9c-1.7,1.3-3.5,2.6-5.2,3.9
			C125.2,359.9,120.7,361.4,117.5,366.1z"/>
		<path fill="#ED1C2C" d="M131.6,399.2c3.5,1.2,6.9,2.3,10.4,3.5c2,1.8,4.4,2.7,6.8,3.8c11.6,5,23,10.3,34.6,15.5
			c-0.7,4.9,0.7,9.2,2.9,13.6c7.7,15.5,19.1,27.9,32.6,38.1c27,20.5,57.7,27,91.1,21.7c39.2-6.2,66.6-28.3,85.6-62.1
			c1.7-3,5.3-7.1,0.9-11.1c13.9-6.5,27.8-13,41.7-19.5c1-0.1,2.1-0.2,3.1-0.2c-8.9,33.1-21.7,64.1-47.6,87.9
			c-3.9,3.6-8,6.9-12.1,10.3c-3.2,2.6-4.9,5.8-4.5,10c-27,11.9-54.1,23.9-81.1,35.8c-3.7,1.6-7.4,1.9-11.2,0.2
			c-35.2-15.5-70.3-30.9-105.5-46.4c2.8-7.2,6.8,0.8,10.2-0.4c0.3-4.4-3.2-5.9-5.3-8c-20.9-20.6-35.9-44.7-42.1-73.6
			C140.4,410.7,134,406.1,131.6,399.2z"/>
		<path fill="#ED1C2C" d="M160,491.8c3-1.9,4.2,0,5.2,2.4C163.3,493.8,161.3,493.5,160,491.8z"/>
		<path fill="#ED1C2C" d="M411.1,495.7c1.2-2.1,2.5-3.7,5.2-2.3C415,495.1,413.1,495.5,411.1,495.7z"/>
		<path fill="#ED1C2C" d="M398.7,501c1.1-2.2,2.4-3.8,5.1-2.2C402.6,500.5,400.7,500.8,398.7,501z"/>
		<path fill="#ED1C2C" d="M386.3,506.4c1-2.3,2.4-3.9,5.1-2.3C390.1,505.9,388.2,506.2,386.3,506.4z"/>
		<path fill="#ED1C2C" d="M382.6,508c0.7-1.9,2.2-2,3.9-1.7C385.6,507.7,384.1,507.9,382.6,508z"/>
		<path fill="#ED1C2C" d="M395,502.6c0.8-1.8,2.2-2,3.9-1.7C398,502.4,396.5,502.6,395,502.6z"/>
		<path fill="#ED1C2C" d="M152.1,488.4c1.8-0.2,3.4-0.1,4.3,1.8C154.8,490.1,153.2,489.8,152.1,488.4z"/>
		<path fill="#ED1C2C" d="M176.1,498.8c1.6-1.5,1.6-0.1,1.8,1C177.2,499.4,176.6,499.1,176.1,498.8z"/>
		<path fill="#ED1C2C" d="M117.6,392.9c0.5,0.3,1,0.6,1.5,0.8C117.6,395.3,117.7,394,117.6,392.9z"/>
		<path fill="#ED1C2C" d="M140.7,274.9c46.7-20.3,93.4-40.5,140-60.9c5.7-2.5,10.8-3.5,16.9-0.8c45.5,20,91.1,39.8,136.7,59.6
			c1.3,0.6,2.6,1.4,3.9,2.1c-15.1,6.9-30.2,13.9-45.3,20.8c-5.2,1.9-10.4,3.8-15.6,5.7c-0.6-1-1.2-2.1-2-2.9
			c-39.2-39.9-99.2-47.6-145.9-19c-9.8,6-20.1,12-26.8,22.2c-1.1-0.2-2.1-0.4-3.2-0.6c-2.6-1.3-5.2-2.6-7.8-3.9
			C175.1,288.7,156.7,284.4,140.7,274.9z"/>
		<path fill="#3F71B8" d="M392.9,295.8c15.1-6.9,30.2-13.9,45.3-20.8c5.7-2.2,11.4-4.4,17.1-6.6c-6.3,6-6.4,14.2-6.8,21.9
			c-0.3,6-0.7,11.8-3.3,17.3c-5.9,12.3-4.5,26.8-12.1,38.6c-3.3,5.2,4.7,6.2,4.5,10.3c-16.7,7.7-33.5,15.4-50.2,23
			c-9.3,3.6-18.7,7.2-28,10.9c-3.4-6.3-0.5-10.6,4.4-14.3c2.4-1.8,4.8-3.5,7.3-5c7.5-4.5,8.3-10.5,4.1-17.8c-4-7-8.5-3.6-13.4-1.1
			c-1.7,0.9-4,0.5-6.1,0.7c10.9-7.1,15.4-19.6,23.9-28.8c2.6-2.9,4.8-6.9,4.5-11.2c-0.2-4.7,1.7-7.6,5.7-10.1
			C392.1,301.4,396.8,300.1,392.9,295.8z"/>
		<path fill="#3F71B8" d="M140.7,274.9c16.1,9.5,34.4,13.8,51,22.3c2.6,1.3,5.2,2.6,7.8,3.9c-1.7,8.7-1.8,17.1,4.9,23.9
			c7.3,7.4,10.3,18.4,20,23.9c1.9,1.1,1.5,3.7,1.5,5.7c-3.6,6.6-7.1,1.8-10.8,0c-2.3-1.1-4.6-5.4-7.4-1.8c-2.5,3.2-5.9,6.7-3.6,11.8
			c1.8,3.8,5,5.5,8.3,7.4c7.6,4.4,12.6,10.4,11.6,19.9c-10.5-4.2-21-8.3-31.6-12.5c-16.8-7.7-33.5-15.4-50.3-23.1
			c18.5,0,19.4-0.9,9-17c-8.9-13.7-11.4-29.4-15.5-44.5c-1.9-6.9,0.5-15.2-2.3-22.6C135.9,273.2,138.3,274,140.7,274.9z"/>
		<path fill="#3F71B8" d="M126.2,269.2c-1.6,1.5-1.4,0.1-1.5-0.9C125.2,268.6,125.7,268.9,126.2,269.2z"/>
		<path fill="#3F71B8" d="M467.6,262.9c-0.1,1,0.1,2.4-1.5,0.9C466.6,263.5,467.1,263.2,467.6,262.9z"/>
		<path fill="#FAA819" d="M192.6,379.5c10.5,4.2,21,8.3,31.6,12.5c20.9,9.4,41.8,18.8,62.8,28.3c-17,7.8-34.1,15.6-51.1,23.3
			c-17.5-7.2-35-14.4-52.4-21.6c-11.5-5.2-23-10.5-34.6-15.5c-2.5-1.1-4.8-2-6.8-3.8C158.8,394.9,175.7,387.2,192.6,379.5z"/>
		<path fill="#ED1C2C" d="M117.5,366.1c3.1-4.7,7.7-6.1,13-5.8C126.6,363.1,122.1,364.7,117.5,366.1z"/>
		<path fill="#ED1C2C" d="M105.1,371.5c0.1-1.1,0.1-2.3,1.5-0.8C106.1,370.9,105.6,371.2,105.1,371.5z"/>
		<path fill="#ED1B2E" d="M183.3,421.9c17.5,7.2,35,14.4,52.5,21.6c16.2,7.2,32.5,14.3,48.7,21.6c3.8,1.7,7.3,1.7,11.1,0
			c16.2-7.3,32.4-14.4,48.6-21.6c17.4-7.1,34.8-14.3,52.1-21.4c4.4,4,0.8,8.1-0.9,11.1c-18.9,33.8-46.4,55.9-85.6,62.1
			c-33.5,5.3-64.1-1.2-91.1-21.7c-13.5-10.2-24.9-22.6-32.6-38.1C184,431.1,182.6,426.8,183.3,421.9z"/>
		<path fill="#FAA819" d="M396.3,422.1c-17.4,7.1-34.8,14.3-52.1,21.4c-17-7.8-34-15.6-51-23.3c2.1-1.1,4.1-2.2,6.3-3.2
			c20-8.9,39.9-17.8,59.9-26.7c9.3-3.6,18.7-7.2,28-10.9c16.9,7.7,33.7,15.4,50.6,23.1C424.1,409.1,410.2,415.6,396.3,422.1z"/>
		<path fill="#4174BA" d="M225.9,354.7c0-2.1,0.3-4.6-1.5-5.7c-9.7-5.5-12.7-16.5-20-23.9c-6.7-6.8-6.6-15.3-4.9-23.9
			c1.1,0.2,2.1,0.4,3.2,0.6c9.8,6.6,21,10.1,32,13.9c16.2,7.1,32.4,14.1,48.6,21.2c3.9,1.7,7.8,2.6,11.9,0.7
			c16.4-7.3,32.8-14.6,49.2-21.9c11.5-3.5,22.3-8.7,33-14.2c5.2-1.9,10.4-3.8,15.6-5.7c3.9,4.4-0.8,5.6-3,7
			c-3.9,2.4-5.9,5.4-5.7,10.1c0.2,4.4-1.9,8.3-4.5,11.2c-8.4,9.2-12.9,21.7-23.9,28.8c-2.7,1.2-5.4,2.3-8,3.6
			c-35.5,18-71.4,19.6-108,3.4C235.3,357.9,231.3,354.3,225.9,354.7z"/>
		<path fill="#ED1B2E" d="M377.2,301.5c-10.7,5.5-21.5,10.6-33,14.2c-16.1-7.9-32.7-14.8-49.3-21.7c-4.6-1.9-8.6-1.4-12.6,0.3
			c-16,7-31.8,14.2-47.8,21.3c-11-3.8-22.2-7.3-32-13.9c6.6-10.2,16.9-16.2,26.8-22.2c46.7-28.5,106.7-20.8,145.9,19
			C376.1,299.4,376.6,300.5,377.2,301.5z"/>
		<path fill="#3E74BA" d="M225.9,354.7c5.4-0.3,9.4,3.2,13.9,5.2c36.6,16.2,72.5,14.6,108-3.4c2.6-1.3,5.3-2.4,8-3.6
			c2-0.2,4.4,0.2,6.1-0.7c4.8-2.5,9.4-5.8,13.4,1.1c4.2,7.2,3.3,13.2-4.1,17.8c-2.5,1.5-4.9,3.3-7.3,5c-4.9,3.7-7.8,8-4.4,14.3
			c-20,8.9-39.9,17.8-59.9,26.7c-2.1,1-4.2,2.1-6.3,3.2c-2.1,0-4.2,0-6.3,0c-20.9-9.4-41.8-18.8-62.8-28.3c1-9.5-3.9-15.5-11.6-19.9
			c-3.3-1.9-6.6-3.6-8.3-7.4c-2.4-5.1,1.1-8.6,3.6-11.8c2.8-3.6,5.1,0.7,7.4,1.8C218.8,356.5,222.3,361.2,225.9,354.7z"/>
	</g>
</g>
</svg>
