<?xml version="1.0" encoding="utf-8"?>
<!-- Generator: Adobe Illustrator 18.1.1, SVG Export Plug-In . SVG Version: 6.00 Build 0)  -->
<svg version="1.1" id="Layer_1" xmlns="http://www.w3.org/2000/svg" xmlns:xlink="http://www.w3.org/1999/xlink" x="0px" y="0px"
	 viewBox="0 0 612 792" enable-background="new 0 0 612 792" xml:space="preserve">
<g>
	<path fill="#527FC0" d="M430.4,147.9c22.1,6.8,34.2,23.7,44.1,43.2c10.3,20.2,24.1,38.6,32.7,59.8c-4.2-0.9-8.5-2.5-12.7-2.6
		c-33.8-0.1-67.6,0.1-101.5,0.2c-57,0-113.9,0-170.9,0c-0.9,0.7-1.9,1.5-2.8,2.2c-2,3-4.2,5.8-6,8.9c-18.1,30.9-36.2,61.9-54.2,92.9
		c-14.5-16.6-32.6-29.4-48.5-44.5c-8.3-7.9-18.1-14.1-25-23.5c7.3-17.4,18.3-32.9,27.3-49.4c8.5-15.6,18.3-30.5,26.4-46.3
		c9.4-18.3,21.5-33.2,41.1-40.9C263.8,147.9,347.1,147.9,430.4,147.9z M191.6,211.1c7-0.9,12.3-4.6,12.6-12.3
		c0.3-7.6-4.5-12.6-12-12.9c-7.6-0.3-12.6,4.4-12.9,12C178.9,205.5,183.8,209.7,191.6,211.1z M433.7,198.6
		c-0.8-7.4-4.7-12.6-12.3-12.7c-7.4-0.1-12.5,4.3-12.7,12.1c-0.2,7.9,4.7,12.5,12,12.8C428.3,211.1,432.5,206.1,433.7,198.6z"/>
	<path fill="#DB4837" d="M514.4,261.6c21.9,37.8,44.2,75.3,65.7,113.4c8.5,15,7.6,31.1-0.9,46c-38.2,66.7-76.7,133.2-115.3,199.7
		c-9.5,16.4-24.5,24.6-43.5,24.6c-30.3,0-60.5-0.2-90.8-0.4c7.4-4.3,12.6-10.8,16.8-18.1c5.8-10,11.8-19.9,17.2-30.2
		c8.8-17,20.5-32.3,27.7-50.2c2.2-3.3,4.7-6.4,6.7-9.9c25-43.2,49.7-86.5,75-129.4c4.5-7.6,4.3-13.2-0.1-20.8
		c-18.3-31-36-62.4-53.8-93.7C450.7,282,482.1,270.3,514.4,261.6z M420.8,583.2c-7.7,1-12.4,5.2-12.1,12.9
		c0.3,7.6,5.1,12.2,12.7,11.9c7.6-0.2,12.1-5,11.9-12.7C433.2,587.5,428.2,583.7,420.8,583.2z M536.2,409.3
		c7.6-0.8,12.3-5.2,12-12.7c-0.2-7.5-5.1-12.1-12.8-11.9c-7.8,0.2-12.2,5.2-12,12.6C523.5,404.8,528.4,409,536.2,409.3z"/>
	<path fill="#F3B41B" d="M320.8,645c-43.8,0.1-87.5,0.6-131.3,0.2c-17.1-0.2-31.2-8.3-39.8-23.2c-39-67.1-77.8-134.3-116.4-201.7
		c-8.3-14.6-8.8-30.5-0.7-45.1c15.5-28,32.1-55.5,48.2-83.2c-0.5,5.9-0.1,11.8,2.9,17c16.9,29,33.8,58,50.7,86.9
		c0.3,1,0.5,2.2,1,3.1c27.1,47,54.4,94,81.3,141.1c3.1,5.4,6.8,6.4,12.4,6.4c37.2-0.1,74.4,0.1,111.5,0.1
		C334,579.5,327.4,612.2,320.8,645z M192.3,583c-6.8,0.2-12.2,3.8-13,11.3c-0.7,7.5,3.5,12.8,11.2,13.6c7.7,0.8,12.8-3.6,13.7-11.1
		C205,589.2,200.6,584.7,192.3,583z M76.9,409.3c7.7-0.4,12.5-4.6,12.6-12.1c0.2-7.5-4.3-12.5-12.1-12.6c-7.7-0.1-12.5,4.3-12.7,12
		C64.4,404.3,69.1,408.4,76.9,409.3z"/>
	<path fill="#5273A7" d="M134.4,395.9c-16.9-29-33.9-57.9-50.7-86.9c-3-5.2-3.4-11.1-2.9-17c1.4-2.7,2.1-5.8,5-7.4
		c6.8,9.4,16.7,15.7,25,23.5c15.9,15.1,34,27.9,48.5,44.5C152,367.7,143.6,382,134.4,395.9z"/>
	<path fill="#D09B2A" d="M320.8,645c6.6-32.8,13.2-65.5,19.7-98.3c16.9-0.1,33.8-0.1,50.7-0.2c-7.2,17.9-18.9,33.2-27.7,50.2
		c-5.3,10.3-11.4,20.2-17.2,30.2c-4.2,7.3-9.3,13.8-16.8,18.1C326.7,644.9,323.7,645,320.8,645z"/>
	<path fill="#C04536" d="M514.4,261.6c-32.4,8.7-63.8,20.4-95.5,31.1c-8.6-14.7-17.2-29.4-25.9-44.1c33.8-0.1,67.6-0.3,101.5-0.2
		c4.2,0,8.5,1.7,12.7,2.6l-0.1-0.1c0.8,0.9,1.6,1.9,2.4,2.8C511.2,256.3,512.8,258.9,514.4,261.6z"/>
	<path fill="#527FC0" d="M509.6,253.6c-0.8-0.9-1.6-1.9-2.4-2.8C509,250.8,509.3,252.2,509.6,253.6z"/>
	<path fill="#CDCCCA" d="M393.1,248.6c8.6,14.7,17.2,29.4,25.9,44.1c17.9,31.3,35.5,62.7,53.8,93.7c4.4,7.5,4.6,13.2,0.1,20.8
		c-25.3,43-50,86.3-75,129.4c-2,3.4-4.4,6.6-6.7,9.9c-16.9,0.1-33.8,0.1-50.7,0.2c-37.2-0.1-74.4-0.2-111.5-0.1
		c-5.5,0-9.3-1-12.4-6.4c-26.9-47.2-54.1-94.1-81.3-141.1c-0.5-0.9-0.7-2.1-1-3.1c9.2-13.9,17.6-28.3,24.8-43.3
		c18.1-31,36.1-61.9,54.2-92.9c1.8-3.1,4-6,6-8.9c0.9-0.7,1.9-1.5,2.8-2.2C279.2,248.6,336.1,248.6,393.1,248.6z M380.2,397.9
		c3.5-40.2-35.4-75.7-72.8-75.3c-41.6,0.4-76.7,31.7-75.6,75.2c1.1,43.7,31.1,73.2,75.1,73.7C348.4,472.1,381.5,438,380.2,397.9z"/>
	<path fill="#F3F6FB" d="M191.6,211.1c-7.8-1.4-12.7-5.6-12.4-13.3c0.3-7.6,5.3-12.3,12.9-12c7.5,0.3,12.3,5.3,12,12.9
		C204,206.4,198.7,210.1,191.6,211.1z"/>
	<path fill="#F3F6FB" d="M433.7,198.6c-1.2,7.5-5.3,12.5-13,12.2c-7.3-0.3-12.3-4.9-12-12.8c0.2-7.8,5.3-12.2,12.7-12.1
		C429,185.9,432.9,191.1,433.7,198.6z"/>
	<path fill="#D8D3CB" d="M222.2,248.6c-0.9,0.7-1.9,1.5-2.8,2.2C220.4,250.1,221.3,249.3,222.2,248.6z"/>
	<path fill="#FDF7F4" d="M420.8,583.2c7.4,0.6,12.4,4.3,12.6,12.1c0.2,7.7-4.3,12.5-11.9,12.7c-7.6,0.2-12.5-4.3-12.7-11.9
		C408.4,588.4,413.1,584.2,420.8,583.2z"/>
	<path fill="#FDF7F4" d="M536.2,409.3c-7.8-0.3-12.6-4.5-12.8-12c-0.2-7.5,4.3-12.4,12-12.6c7.7-0.2,12.6,4.4,12.8,11.9
		C548.4,404.1,543.8,408.5,536.2,409.3z"/>
	<path fill="#FFFBF4" d="M192.3,583c8.3,1.7,12.7,6.2,11.9,13.9c-0.9,7.5-6,11.8-13.7,11.1c-7.7-0.8-11.9-6.1-11.2-13.6
		C180,586.8,185.5,583.3,192.3,583z"/>
	<path fill="#FFFBF4" d="M76.9,409.3c-7.8-0.9-12.4-5-12.2-12.7c0.2-7.7,5.1-12.1,12.7-12c7.8,0.1,12.3,5.1,12.1,12.6
		C89.3,404.7,84.5,408.9,76.9,409.3z"/>
	<path fill="#FFFFFF" d="M380.2,397.9c1.4,40-31.8,74.2-73.3,73.6c-44-0.6-74-30-75.1-73.7c-1.1-43.5,34-74.8,75.6-75.2
		C344.8,322.2,383.6,357.8,380.2,397.9z"/>
</g>
</svg>
