<?xml version="1.0" encoding="utf-8"?>
<!-- Generator: Adobe Illustrator 18.1.1, SVG Export Plug-In . SVG Version: 6.00 Build 0)  -->
<svg version="1.1" id="Layer_1" xmlns="http://www.w3.org/2000/svg" xmlns:xlink="http://www.w3.org/1999/xlink" x="0px" y="0px"
	 viewBox="0 0 612 792" enable-background="new 0 0 612 792" xml:space="preserve">
<g>
	<path fill="#FEA203" d="M372.1,413.8c2.2,1,4.3,2,6.6,2.9c2,0.8,2.9,2.1,2.9,4.2c-0.1,6.7,0,13.4,0,20.2c0,2-0.8,3.3-2.7,4.1
		c-23.5,10.2-46.9,20.4-70.4,30.6c-1.5,0.7-2.9,0.6-4.4,0c-23.4-10.2-46.9-20.4-70.4-30.6c-1.9-0.8-2.7-2.1-2.7-4.1
		c0-6.7,0-13.4,0-20.2c0-2.1,0.9-3.4,2.9-4.2c2.2-0.9,4.4-2,6.6-2.9c0.5,0.2,1,0.3,1.6,0.5c5.1,2.1,10.2,4.3,15.3,6.4
		c2.9,1.3,5.7,2.7,8.6,4c-4.5,2-9.1,4-14,6.2c0.8,0.4,1.1,0.6,1.5,0.7c16.9,7.4,33.9,14.7,50.8,22.1c1.6,0.7,3,0.6,4.6-0.1
		c16.8-7.3,33.5-14.6,50.3-21.9c0.5-0.2,1.1-0.2,1.3-1c-4.5-2-9-4-13.6-6c4-1.8,7.9-3.6,11.9-5.5
		C363.1,417.5,367.6,415.7,372.1,413.8z"/>
	<path fill="#026EEC" d="M255.9,338.5c7.3-3.2,14.6-6.4,21.9-9.6c1.8-0.8,3.7-1.6,5.5-2.3c0.3,0.2,0.4,0.1,0.4-0.2
		c0.2-0.4,0.6-0.4,1-0.4c1.1,0.4,1.8-0.3,2.4-1c0.6-0.5,1.2-0.8,2-0.8c0.7,0.4,1.1,0,1.4-0.6c0.9-0.6,1.9-1.1,2.9-1.3
		c0.3,0.3,0.4,0.2,0.4-0.2c0,0,0,0,0,0c0.5,0.1,0.8,0,1-0.5c0.2-0.4,0.6-0.4,1-0.4c1.1,0.4,1.8-0.3,2.4-1c0.6-0.5,1.2-0.8,2-0.8
		c0.7,0.4,1.1,0,1.4-0.6c0.9-0.6,1.9-1.1,2.9-1.3c0.3,0.4,0.4,0.1,0.4-0.2c0.3-0.3,0.6-0.4,1-0.3c0.2,0.3,0.3,0.2,0.5,0
		c0.5-0.2,1.1-0.1,1.5,0.3c0,0.3,0,0.6,0.4,0.2c1.1,0.2,2,0.7,2.9,1.3c0.3,0.6,0.6,1.1,1.4,0.6c0.7,0.1,1.4,0.4,2,0.8
		c0.6,0.8,1.2,1.5,2.4,1c0.7,0,1.4,0.4,2,0.8c0.3,0.6,0.6,1.2,1.4,0.6c0.7,0.1,1.4,0.4,2,0.8c0.3,0.6,0.6,1.1,1.4,0.6
		c0.7,0.1,1.4,0.4,2,0.8c0.6,0.8,1.2,1.5,2.4,1.1c9.6,4.2,19.4,8,28.8,12.5c-1.5,0.7-1.7,1.8-1,3.3c2.3,4.8,3.4,9.9,4.2,15.1
		c0.2,1.5,0.9,3.2,0.1,4.8c-3.3-1.1-6.4-2.6-9.6-4.1c-0.2-0.7-0.6-1.2-1.4-0.7c-0.7-0.3-1.3-0.5-2-0.8c-0.3-0.8-0.8-1.6-1-2.4
		c-2.4-7.8-6.5-14.4-12.6-20c-9.8-9-21.3-11.3-33.9-9.7c-8,1-14.6,5-20.8,10.4c-5.5,4.8-8.4,10.9-11.1,17.3
		c-0.6,1.5-0.9,3.2-2.1,4.4c-0.9,0.6-1.9,1.1-2.9,1.2c-0.4-0.4-0.4,0-0.4,0.2c-3.4,1.5-6.8,3-10.2,4.6c0.9-6.8,1.7-13.6,4.9-19.9
		C257.7,340.7,258.4,339.1,255.9,338.5z"/>
	<path fill="#036DE7" d="M255.9,338.5c2.5,0.6,1.8,2.1,1,3.7c-3.2,6.2-3.9,13.1-4.9,19.9c0,0.1,0.1,0.3,0.1,0.4
		c-1.1,1.1,0.6,1.9,0.4,2.9c0,4.7-0.1,9.4-0.3,14c-0.1,2-0.3,3.1-2.2,3.8c-3.2-1.3-6.4-2.6-9.5-3.8c-2.3-1-4.6-2.1-7-3.1
		c-1.7-0.7-2.4-1.9-2.4-3.7c0-6.9,0-13.7,0-20.6c0-1.7,0.5-3,2.1-3.7C240.8,345,248.3,341.7,255.9,338.5z"/>
	<path fill="#036DE7" d="M360,361.6c0.9-1.6,0.2-3.3-0.1-4.8c-0.8-5.2-1.9-10.3-4.2-15.1c-0.7-1.5-0.5-2.5,1-3.3
		c2,0.6,3.9,1.5,5.8,2.5c0.1,0.6,0.2,1.1,1,0.4c5.3,2.3,10.7,4.5,16,6.8c1.5,0.6,2.1,1.9,2.1,3.5c0,6.9,0,13.9,0,20.8
		c0,1.8-0.8,3-2.5,3.7c-2.3,1-4.6,2.1-7,3.1c-3.1,0.8-5.8,2.9-9,3.4c-1.1-0.6-2.1-1.4-2.1-2.9c-0.1-4.8-0.2-9.5-0.5-14.3
		c-0.1-1.1,0.9-2.1,0-3.1C360.3,362.2,360.1,361.9,360,361.6z"/>
	<path fill="#E90322" d="M240.5,379.4c3.2,1.3,6.4,2.6,9.5,3.8c1,1.1,2.9,0.7,3.6,2.3c-1.4,3.3-0.8,6.9-1.9,10.3
		c0,0.1,0.3,0.3,0.5,0.5c0,0.3,0,0.5,0,0.8c-0.3,0.2-0.6,0.4-0.5,0.7c1.2,5.6,1.3,11.4,3.4,16.8c0.8,2,2.1,3.9,2.1,6.3
		c-5.1-2.1-10.2-4.3-15.3-6.4c-0.5-0.2-1-0.4-1.6-0.5c-2.3-1.1-4.6-2.2-6.9-3.2c-1.7-0.7-2.4-1.9-2.4-3.7c0-6.9,0-13.9,0-20.8
		c0-1.8,0.8-3,2.5-3.7C235.9,381.5,238.2,380.4,240.5,379.4z"/>
	<path fill="#E90322" d="M363.1,382.8c3.2-0.5,5.9-2.6,9-3.4c2.3,1,4.6,2.1,7,3.1c1.7,0.7,2.5,1.9,2.5,3.7c0,6.9,0,13.9,0,20.8
		c0,1.8-0.8,3-2.5,3.7c-2.3,1-4.6,2.1-6.9,3.2c-4.5,1.8-9,3.7-13.5,5.5c0-0.5,0-1,0.1-1.4c2.2-5.1,3.3-10.5,3.9-16.1
		c0.6-6.1,0.1-12.1-1.2-18.1C362,383.4,362.6,383.1,363.1,382.8z"/>
	<path fill="#0270F1" d="M316.9,321.2c-1.1,0.4-1.8-0.3-2.4-1C315.3,320.3,316.2,320.6,316.9,321.2z"/>
	<path fill="#0270F1" d="M298.1,320.2c-0.6,0.7-1.3,1.4-2.4,1C296.4,320.6,297.2,320.3,298.1,320.2z"/>
	<path fill="#0270F1" d="M287,325c-0.6,0.7-1.3,1.4-2.4,1C285.4,325.4,286.2,325.1,287,325z"/>
	<path fill="#0270F1" d="M327.9,326c-1.1,0.4-1.8-0.3-2.4-1.1C326.4,325.1,327.2,325.4,327.9,326z"/>
	<path fill="#0270F1" d="M312.5,319.3c-0.8,0.4-1.1,0-1.4-0.6C311.6,318.8,312.2,318.9,312.5,319.3z"/>
	<path fill="#0270F1" d="M301.4,318.7c-0.3,0.6-0.7,1-1.4,0.6C300.4,318.9,300.9,318.8,301.4,318.7z"/>
	<path fill="#0270F1" d="M320.2,322.7c-0.8,0.5-1.1,0-1.4-0.6C319.3,322.1,319.9,322.2,320.2,322.7z"/>
	<path fill="#0270F1" d="M290.4,323.5c-0.3,0.6-0.7,1-1.4,0.6C289.4,323.7,289.9,323.6,290.4,323.5z"/>
	<path fill="#026EEC" d="M363.4,341.4c-0.7,0.7-0.8,0.2-1-0.4C362.8,341.1,363.1,341.3,363.4,341.4z"/>
	<path fill="#0270F1" d="M323.6,324.1c-0.8,0.4-1.1,0-1.4-0.6C322.7,323.6,323.2,323.7,323.6,324.1z"/>
	<path fill="#0270F1" d="M294.7,321.6c-0.2,0.5-0.6,0.6-1,0.5C293.9,321.7,294.3,321.7,294.7,321.6z"/>
	<path fill="#0270F1" d="M308.2,317.4c-0.4,0.4-0.4,0.1-0.4-0.2C307.9,317.3,308.1,317.3,308.2,317.4z"/>
	<path fill="#0270F1" d="M304.8,317.2c0,0.3-0.1,0.6-0.4,0.2C304.5,317.4,304.6,317.3,304.8,317.2z"/>
	<path fill="#0270F1" d="M306.3,316.9c-0.1,0.3-0.3,0.3-0.5,0C306,316.9,306.1,316.9,306.3,316.9z"/>
	<path fill="#0270F1" d="M283.7,326.4c-0.1,0.3-0.2,0.4-0.4,0.2C283.4,326.5,283.5,326.5,283.7,326.4z"/>
	<path fill="#0270F1" d="M293.7,322.1c0,0.3-0.1,0.5-0.4,0.2C293.4,322.1,293.6,322,293.7,322.1z"/>
	<path fill="#F00123" d="M331.3,431.2c-0.5,0.2-1,0.5-1.5,0.7c-0.1-1.1,0.4-2,1.2-2.7c1.1-0.9,2.2-1.8,3.3-2.8
		c7-6.4,10.4-14.8,12.8-23.7c4.4-2,8.9-4,13.6-6.2c-4.8-2.2-9.3-4.2-13.7-6.3c0.8-0.4,1.5-0.8,2.3-1.1c4.1-1.8,8.2-3.6,12.2-5.4
		c1.4,6,1.8,12,1.2,18.1c-0.6,5.5-1.7,10.9-3.9,16.1c-0.2,0.4-0.1,0.9-0.1,1.4c-4,1.8-7.9,3.6-11.9,5.5c-2.1,0.8-4.3,1.7-6.4,2.5
		c-0.7-0.4-1.1,0.1-1.4,0.6c-0.6,0.5-1.2,0.8-2,0.8c-0.7-0.4-1.1,0-1.4,0.6c0,0,0,0,0,0c-0.4-0.1-0.8,0-1,0.5
		c-0.2,0.4-0.6,0.4-1,0.4c-0.7-0.4-1.1,0-1.4,0.6c0,0,0,0,0,0C331.9,430.7,331.5,430.7,331.3,431.2z"/>
	<path fill="#F00123" d="M269.1,425.9c-1.1-0.4-2.2-0.7-3.3-1.1c-2.9-1.3-5.7-2.7-8.6-4c0-2.3-1.3-4.2-2.1-6.3
		c-2.1-5.4-2.2-11.2-3.4-16.8c-0.1-0.4,0.2-0.6,0.5-0.7c2.6,0.8,5.1,2,7.6,3.2c0,0.3,0,0.6,0.4,0.2c1.2,0.3,2.3,0.8,3.4,1.5
		c0.7,1.9,2.4,3.1,2.8,5.2c1.7,7.8,5.7,14.3,11.4,19.8c0.6,0.6,1.5,1,1.4,2.1c-0.9,0.3-2-1.8-2.8,0.1l-0.2,0c0,0-0.2-0.1-0.2-0.1
		c-0.1-0.3-0.1-0.7-0.5-0.3c-1.1-0.2-2-0.7-2.9-1.2c-0.3-0.6-0.6-1.2-1.4-0.7c-0.4,0-0.7-0.1-1-0.4
		C270,425.9,269.6,425.9,269.1,425.9z"/>
	<path fill="#0270F1" d="M265.5,356c1.2-1.2,1.5-2.9,2.1-4.4c2.7-6.4,5.6-12.5,11.1-17.3c6.2-5.4,12.7-9.3,20.8-10.4
		c12.6-1.6,24.1,0.7,33.9,9.7c6.1,5.6,10.2,12.2,12.6,20c0.3,0.8,0.7,1.6,1,2.4c-12.5-5.4-25.1-10.8-37.6-16.3c-2.3-1-4.1-1-6.3,0
		C290.6,345.2,278.1,350.6,265.5,356z"/>
	<path fill="#0270F1" d="M350.4,357.5c-0.5-0.2-0.9-0.4-1.4-0.7C349.8,356.2,350.1,356.8,350.4,357.5z"/>
	<path fill="#0270F1" d="M262.6,357.3c-0.1,0.1-0.3,0.2-0.4,0.2C262.2,357.2,262.2,356.8,262.6,357.3z"/>
	<path fill="#0270EB" d="M254.4,363.5c2.5,0.8,4.9,1.9,7.3,3.1c0,0.3,0,0.7,0.4,0.2c0.7,0.1,1.4,0.4,2,0.8c0.8,2,0.1,4.2,0.6,6.1
		c1.1,4.1,1.8,8.3,4.2,12c2.8,4.4,2.6,4.6-2.4,4.6c-0.6,0-1.2,0-1.7,0c-3.5-2.1-7.2-3.6-11.1-4.8c-0.6-1.6-2.6-1.2-3.6-2.3
		c1.8-0.6,2.1-1.8,2.2-3.8c0.2-4.7,0.3-9.4,0.3-14C253.6,365.2,254.6,364.9,254.4,363.5z"/>
	<path fill="#026EEC" d="M254.4,363.5c0.1,1.4-0.8,1.7-1.9,1.9c0.3-1-1.5-1.8-0.4-2.9C253,362.6,253.8,363,254.4,363.5z"/>
	<path fill="#0270EB" d="M350.9,366.6c0.9-0.5,1.9-1.1,2.9-1.2c0.4,0.4,0.4,0,0.4-0.2c2.1-0.9,4.1-1.8,6.2-2.7c0.9,1,0,2.1,0,3.1
		c0.3,4.7,0.4,9.5,0.5,14.3c0,1.5,1,2.3,2.1,2.9c-0.5,0.3-1.1,0.7-1.6,1c-4.1,1.8-8.2,3.6-12.2,5.4c-0.8,0.4-1.6,0.8-2.3,1.1
		c-0.3,0-0.5,0-0.8,0.1c0-1.1-2.1-1.4-1.2-2.8c2-3.2,1.7-7.1,3.3-10.4c0.7-1.5,0.8-3,0.9-4.7C349.1,370.4,349.2,368.2,350.9,366.6z"
		/>
	<path fill="#F00123" d="M259.8,393c-0.9,0.6-1.9,1.1-2.9,1.2c-0.4-0.4-0.4-0.1-0.4,0.2c-1.3,0.9-3.1,0.6-4.2,1.8
		c-0.2-0.2-0.5-0.4-0.5-0.5c1-3.3,0.5-7,1.9-10.3c3.9,1.2,7.6,2.7,11.1,4.8c-0.5,0.4-0.9,0.7-1.4,1.1
		C261.9,391.3,260.6,391.7,259.8,393z"/>
	<path fill="#F50228" d="M263.6,401.9c0.9,0.3,1.9,0.6,2.8,0.9c0.5,0.5,1.2,0.7,1.8,1c3.1,1.3,6.2,2.8,9.3,4.2
		c-0.2,1.3,0.2,2.5,0.8,3.7c2.1,4.2,5.2,7.5,8.8,10.3c7.3,5.5,15.6,7.3,24.6,5.8c10.6-1.7,18-7.6,23.1-16.8c0.5-0.8,1.4-1.9,0.2-3
		c3.7-1.7,7.5-3.5,11.2-5.2c0.3,0,0.6,0,0.8-0.1c-2.4,8.9-5.8,17.3-12.8,23.7c-1,1-2.2,1.9-3.3,2.8c-0.9,0.7-1.3,1.6-1.2,2.7
		c-7.3,3.2-14.6,6.4-21.9,9.6c-1,0.4-2,0.5-3,0.1c-9.5-4.2-19-8.3-28.5-12.5c0.8-1.9,1.8,0.2,2.8-0.1c0.1-1.2-0.9-1.6-1.4-2.1
		c-5.6-5.6-9.7-12.1-11.4-19.8C265.9,405,264.2,403.8,263.6,401.9z"/>
	<path fill="#F50228" d="M271.2,426.9c0.8-0.5,1.1,0,1.4,0.7C272.1,427.4,271.6,427.3,271.2,426.9z"/>
	<path fill="#F50228" d="M339,427.9c0.3-0.6,0.7-1,1.4-0.6C340,427.8,339.5,427.9,339,427.9z"/>
	<path fill="#F50228" d="M335.6,429.4c0.3-0.6,0.7-1,1.4-0.6C336.7,429.2,336.1,429.3,335.6,429.4z"/>
	<path fill="#F50228" d="M332.3,430.8c0.3-0.6,0.6-1,1.4-0.6C333.3,430.7,332.8,430.8,332.3,430.8z"/>
	<path fill="#F50228" d="M331.3,431.2c0.2-0.5,0.6-0.6,1-0.5C332.1,431.2,331.7,431.2,331.3,431.2z"/>
	<path fill="#F50228" d="M334.6,429.8c0.2-0.5,0.6-0.5,1-0.5C335.4,429.7,335,429.8,334.6,429.8z"/>
	<path fill="#F50228" d="M269.1,425.9c0.5,0,0.9,0,1.1,0.5C269.8,426.4,269.4,426.3,269.1,425.9z"/>
	<path fill="#F50228" d="M275.6,428.7c0.4-0.4,0.4,0,0.5,0.3C275.9,428.9,275.7,428.8,275.6,428.7z"/>
	<path fill="#F50228" d="M259.8,400.2c0.1,0.1,0.3,0.2,0.4,0.2C259.8,400.8,259.8,400.5,259.8,400.2z"/>
	<path fill="#F50228" d="M266,368.4c12.6-5.5,25.2-10.9,37.8-16.4c1.5-0.7,2.9-0.9,4.6-0.2c12.3,5.4,24.6,10.7,36.9,16.1
		c0.4,0.2,0.7,0.4,1,0.6c-4.1,1.9-8.2,3.7-12.2,5.6c-1.4,0.5-2.8,1-4.2,1.5c-0.2-0.3-0.3-0.6-0.5-0.8c-10.6-10.8-26.8-12.8-39.4-5.1
		c-2.7,1.6-5.4,3.2-7.2,6c-0.3-0.1-0.6-0.1-0.8-0.2c-0.7-0.4-1.4-0.7-2.1-1.1C275.3,372.1,270.4,370.9,266,368.4z"/>
	<path fill="#0274F0" d="M334,374c4.1-1.9,8.2-3.7,12.2-5.6c1.5-0.6,3.1-1.2,4.6-1.8c-1.7,1.6-1.7,3.8-1.8,5.9
		c-0.1,1.6-0.2,3.2-0.9,4.7c-1.6,3.3-1.2,7.2-3.3,10.4c-0.9,1.4,1.3,1.7,1.2,2.8c-4.5,2.1-9,4.1-13.6,6.2c-2.5,1-5,2-7.6,2.9
		c-0.9-1.7-0.1-2.9,1.2-3.9c0.6-0.5,1.3-0.9,2-1.3c2-1.2,2.2-2.8,1.1-4.8c-1.1-1.9-2.3-1-3.6-0.3c-0.5,0.2-1.1,0.1-1.6,0.2
		c2.9-1.9,4.2-5.3,6.4-7.8c0.7-0.8,1.3-1.9,1.2-3c-0.1-1.3,0.5-2.1,1.5-2.7C333.8,375.5,335.1,375.2,334,374z"/>
	<path fill="#0274F0" d="M266,368.4c4.3,2.6,9.3,3.7,13.7,6c0.7,0.4,1.4,0.7,2.1,1.1c-0.5,2.3-0.5,4.6,1.3,6.5c2,2,2.8,5,5.4,6.4
		c0.5,0.3,0.4,1,0.4,1.5c-1,1.8-1.9,0.5-2.9,0c-0.6-0.3-1.2-1.5-2-0.5c-0.7,0.9-1.6,1.8-1,3.2c0.5,1,1.3,1.5,2.2,2
		c2.1,1.2,3.4,2.8,3.1,5.4c-2.8-1.1-5.7-2.2-8.5-3.4c-4.5-2.1-9-4.1-13.6-6.2c5,0,5.2-0.2,2.4-4.6c-2.4-3.7-3.1-7.9-4.2-12
		c-0.5-1.9,0.1-4.1-0.6-6.1C264.7,367.9,265.4,368.1,266,368.4z"/>
	<path fill="#0274F0" d="M262.1,366.8c-0.4,0.4-0.4,0-0.4-0.2C261.8,366.7,262,366.8,262.1,366.8z"/>
	<path fill="#0274F0" d="M354.2,365.1c0,0.3,0,0.7-0.4,0.2C353.9,365.3,354.1,365.2,354.2,365.1z"/>
	<path fill="#FCA703" d="M280,396.6c2.8,1.1,5.7,2.2,8.5,3.4c5.6,2.5,11.3,5.1,16.9,7.6c-4.6,2.1-9.2,4.2-13.8,6.3
		c-4.7-1.9-9.4-3.9-14.1-5.8c-3.1-1.4-6.2-2.8-9.3-4.2c-0.7-0.3-1.3-0.5-1.8-1C270.9,400.7,275.5,398.7,280,396.6z"/>
	<path fill="#F50228" d="M259.8,393c0.8-1.3,2.1-1.6,3.5-1.6C262.2,392.1,261,392.6,259.8,393z"/>
	<path fill="#F50228" d="M256.4,394.4c0-0.3,0-0.6,0.4-0.2C256.7,394.3,256.6,394.3,256.4,394.4z"/>
	<path fill="#F90029" d="M277.5,408c4.7,1.9,9.4,3.9,14.1,5.8c4.4,1.9,8.8,3.9,13.1,5.8c1,0.5,2,0.5,3,0c4.4-2,8.7-3.9,13.1-5.8
		c4.7-1.9,9.4-3.9,14.1-5.8c1.2,1.1,0.2,2.2-0.2,3c-5.1,9.1-12.5,15.1-23.1,16.8c-9,1.4-17.3-0.3-24.6-5.8
		c-3.6-2.8-6.7-6.1-8.8-10.3C277.7,410.5,277.3,409.3,277.5,408z"/>
	<path fill="#FCA703" d="M335,408.1c-4.7,1.9-9.4,3.9-14.1,5.8c-4.6-2.1-9.2-4.2-13.7-6.3c0.6-0.3,1.1-0.6,1.7-0.9
		c5.4-2.4,10.8-4.8,16.2-7.2c2.5-1,5-2,7.6-2.9c4.5,2.1,9.1,4.2,13.6,6.2C342.5,404.6,338.7,406.3,335,408.1z"/>
	<path fill="#0179F5" d="M289,389.9c0-0.6,0.1-1.3-0.4-1.5c-2.6-1.5-3.4-4.4-5.4-6.4c-1.8-1.8-1.8-4.1-1.3-6.5
		c0.3,0.1,0.6,0.1,0.8,0.2c2.6,1.8,5.7,2.7,8.6,3.8c4.4,1.9,8.7,3.8,13.1,5.7c1.1,0.5,2.1,0.7,3.2,0.2c4.4-2,8.8-3.9,13.3-5.9
		c3.1-0.9,6-2.3,8.9-3.8c1.4-0.5,2.8-1,4.2-1.5c1,1.2-0.2,1.5-0.8,1.9c-1.1,0.7-1.6,1.4-1.5,2.7c0.1,1.2-0.5,2.2-1.2,3
		c-2.3,2.5-3.5,5.9-6.4,7.8c-0.7,0.3-1.5,0.6-2.2,1c-9.6,4.9-19.3,5.3-29.1,0.9C291.5,390.7,290.5,389.8,289,389.9z"/>
	<path fill="#F90029" d="M329.8,375.5c-2.9,1.5-5.8,2.9-8.9,3.8c-4.4-2.1-8.8-4-13.3-5.8c-1.2-0.5-2.3-0.4-3.4,0.1
		c-4.3,1.9-8.6,3.8-12.9,5.7c-3-1-6-2-8.6-3.8c1.8-2.7,4.6-4.4,7.2-6c12.6-7.7,28.8-5.6,39.4,5.1C329.5,375,329.6,375.3,329.8,375.5
		z"/>
	<path fill="#0279EF" d="M289,389.9c1.5-0.1,2.5,0.9,3.8,1.4c9.9,4.4,19.6,3.9,29.1-0.9c0.7-0.4,1.4-0.6,2.2-1
		c0.6-0.1,1.2,0,1.6-0.2c1.3-0.7,2.5-1.6,3.6,0.3c1.1,2,0.9,3.6-1.1,4.8c-0.7,0.4-1.3,0.9-2,1.3c-1.3,1-2.1,2.2-1.2,3.9
		c-5.4,2.4-10.8,4.8-16.2,7.2c-0.6,0.3-1.1,0.6-1.7,0.9c-0.6,0-1.1,0-1.7,0c-5.6-2.5-11.3-5.1-16.9-7.6c0.3-2.6-1.1-4.2-3.1-5.4
		c-0.9-0.5-1.8-1-2.2-2c-0.6-1.4,0.3-2.3,1-3.2c0.8-1,1.4,0.2,2,0.5C287.1,390.4,288,391.6,289,389.9z"/>
</g>
</svg>
