<?xml version="1.0" encoding="utf-8"?>
<!-- Generator: Adobe Illustrator 16.0.0, SVG Export Plug-In . SVG Version: 6.00 Build 0)  -->
<!DOCTYPE svg PUBLIC "-//W3C//DTD SVG 1.1//EN" "http://www.w3.org/Graphics/SVG/1.1/DTD/svg11.dtd">
<svg version="1.1" xmlns="http://www.w3.org/2000/svg" xmlns:xlink="http://www.w3.org/1999/xlink" x="0px" y="0px"
   width="450.191px" height="110.772px" viewBox="0 0 450.191 110.772" enable-background="new 0 0 450.191 110.772"
   xml:space="preserve">
<g id="EDITABLE_TYPE">
  <g>
    <path fill="#6C6D6D" d="M181.311,63.064c0,7.56-2.099,13.34-6.296,17.338c-4.198,4-10.244,5.999-18.138,5.999h-12.812V40.604
      h14.159c7.288,0,12.958,1.963,17.01,5.89C179.285,50.419,181.311,55.943,181.311,63.064z M173.417,63.315
      c0-10.964-5.127-16.446-15.381-16.446h-6.484v33.237h5.325C167.903,80.105,173.417,74.509,173.417,63.315z"/>
    <path fill="#6C6D6D" d="M201.645,87.028c-5.388,0-9.602-1.571-12.64-4.714s-4.558-7.471-4.558-12.984
      c0-5.659,1.41-10.107,4.229-13.345c2.819-3.237,6.693-4.855,11.622-4.855c4.574,0,8.187,1.389,10.839,4.166
      c2.652,2.778,3.979,6.6,3.979,11.465v3.979h-23.087c0.104,3.362,1.013,5.947,2.726,7.753c1.712,1.807,4.124,2.709,7.236,2.709
      c2.046,0,3.952-0.193,5.717-0.58c1.765-0.386,3.66-1.028,5.686-1.926v5.983c-1.796,0.857-3.613,1.462-5.451,1.817
      C206.104,86.851,204.005,87.028,201.645,87.028z M200.298,56.705c-2.339,0-4.213,0.742-5.623,2.224
      c-1.41,1.483-2.25,3.645-2.521,6.484h15.726c-0.042-2.861-0.731-5.028-2.068-6.5S202.637,56.705,200.298,56.705z"/>
    <path fill="#6C6D6D" d="M227.523,86.402l-13.157-34.646h7.769l7.048,20.142c1.211,3.383,1.942,6.12,2.193,8.208h0.25
      c0.188-1.504,0.919-4.239,2.193-8.208l7.049-20.142h7.83L235.48,86.402H227.523z"/>
    <path fill="#6C6D6D" d="M265.243,87.028c-5.388,0-9.601-1.571-12.64-4.714c-3.038-3.143-4.558-7.471-4.558-12.984
      c0-5.659,1.409-10.107,4.229-13.345c2.819-3.237,6.693-4.855,11.622-4.855c4.573,0,8.187,1.389,10.839,4.166
      c2.651,2.778,3.979,6.6,3.979,11.465v3.979h-23.087c0.104,3.362,1.013,5.947,2.725,7.753c1.713,1.807,4.125,2.709,7.236,2.709
      c2.047,0,3.952-0.193,5.717-0.58c1.765-0.386,3.66-1.028,5.687-1.926v5.983c-1.797,0.857-3.613,1.462-5.451,1.817
      C269.702,86.851,267.604,87.028,265.243,87.028z M263.896,56.705c-2.339,0-4.213,0.742-5.623,2.224
      c-1.409,1.483-2.25,3.645-2.521,6.484h15.726c-0.042-2.861-0.731-5.028-2.067-6.5C268.073,57.441,266.235,56.705,263.896,56.705z"
      />
    <path fill="#6C6D6D" d="M290.589,86.402h-7.361V37.659h7.361V86.402z"/>
    <path fill="#6C6D6D" d="M327.996,69.016c0,5.66-1.452,10.077-4.354,13.251s-6.943,4.761-12.123,4.761
      c-3.237,0-6.098-0.731-8.583-2.193c-2.485-1.461-4.396-3.56-5.732-6.296c-1.337-2.735-2.005-5.91-2.005-9.523
      c0-5.618,1.44-10.003,4.323-13.157c2.882-3.153,6.943-4.73,12.186-4.73c5.012,0,8.979,1.613,11.903,4.839
      S327.996,63.545,327.996,69.016z M302.779,69.016c0,7.999,2.954,11.998,8.865,11.998c5.847,0,8.771-3.999,8.771-11.998
      c0-7.915-2.944-11.873-8.834-11.873c-3.091,0-5.33,1.023-6.719,3.07C303.473,62.261,302.779,65.194,302.779,69.016z"/>
    <path fill="#6C6D6D" d="M350.178,87.028c-4.385,0-7.789-1.577-10.212-4.73h-0.438c0.292,2.924,0.438,4.699,0.438,5.325v14.19
      h-7.361V51.756h5.952c0.167,0.647,0.512,2.192,1.033,4.636h0.376c2.297-3.509,5.743-5.263,10.338-5.263
      c4.322,0,7.69,1.566,10.103,4.699c2.412,3.132,3.618,7.529,3.618,13.188c0,5.66-1.228,10.077-3.681,13.251
      C357.89,85.441,354.501,87.028,350.178,87.028z M348.393,57.144c-2.924,0-5.059,0.856-6.406,2.569
      c-1.347,1.712-2.021,4.448-2.021,8.208v1.096c0,4.219,0.668,7.273,2.005,9.163c1.336,1.891,3.519,2.835,6.547,2.835
      c2.548,0,4.512-1.044,5.89-3.132c1.378-2.088,2.067-5.064,2.067-8.928c0-3.885-0.685-6.824-2.052-8.818
      C353.055,58.141,351.045,57.144,348.393,57.144z"/>
    <path fill="#6C6D6D" d="M383.856,87.028c-5.388,0-9.601-1.571-12.64-4.714c-3.038-3.143-4.558-7.471-4.558-12.984
      c0-5.659,1.409-10.107,4.229-13.345c2.819-3.237,6.693-4.855,11.622-4.855c4.573,0,8.187,1.389,10.839,4.166
      c2.651,2.778,3.979,6.6,3.979,11.465v3.979H374.24c0.104,3.362,1.013,5.947,2.725,7.753c1.713,1.807,4.125,2.709,7.236,2.709
      c2.047,0,3.952-0.193,5.717-0.58c1.765-0.386,3.66-1.028,5.687-1.926v5.983c-1.797,0.857-3.613,1.462-5.451,1.817
      C388.315,86.851,386.217,87.028,383.856,87.028z M382.51,56.705c-2.339,0-4.213,0.742-5.623,2.224
      c-1.409,1.483-2.25,3.645-2.521,6.484h15.726c-0.042-2.861-0.731-5.028-2.067-6.5C386.687,57.441,384.849,56.705,382.51,56.705z"
      />
    <path fill="#6C6D6D" d="M419.415,51.129c1.483,0,2.705,0.104,3.666,0.313l-0.721,6.86c-1.045-0.25-2.131-0.376-3.258-0.376
      c-2.945,0-5.331,0.961-7.158,2.882c-1.828,1.922-2.741,4.417-2.741,7.487v18.106h-7.361V51.756h5.764l0.972,6.108h0.376
      c1.147-2.067,2.646-3.707,4.495-4.918C415.296,51.735,417.285,51.129,419.415,51.129z"/>
    <path fill="#6C6D6D" d="M448.929,76.534c0,3.383-1.232,5.979-3.697,7.785c-2.464,1.807-5.993,2.709-10.588,2.709
      c-4.615,0-8.322-0.699-11.12-2.099V78.57c4.072,1.88,7.862,2.819,11.371,2.819c4.531,0,6.798-1.368,6.798-4.104
      c0-0.877-0.251-1.608-0.752-2.193c-0.501-0.584-1.326-1.19-2.475-1.817c-1.149-0.626-2.747-1.336-4.793-2.13
      c-3.989-1.545-6.688-3.091-8.098-4.636c-1.41-1.545-2.114-3.55-2.114-6.015c0-2.965,1.195-5.268,3.586-6.907
      c2.392-1.639,5.644-2.459,9.759-2.459c4.072,0,7.925,0.825,11.559,2.475l-2.381,5.544c-3.738-1.545-6.881-2.318-9.429-2.318
      c-3.885,0-5.826,1.107-5.826,3.32c0,1.086,0.506,2.005,1.519,2.757c1.013,0.751,3.222,1.786,6.626,3.101
      c2.86,1.107,4.938,2.12,6.233,3.039c1.295,0.919,2.256,1.979,2.882,3.18C448.615,73.428,448.929,74.864,448.929,76.534z"/>
  </g>
</g>
<g id="GOOGLE_LOGOTYPE">
  <g>
    <path fill-rule="evenodd" clip-rule="evenodd" fill="#666666" d="M237.408,15.135c0.491-0.208,0.535-0.246,0.343-0.765
      c-1.025-2.931-4.897-4.52-8.208-3.141c-2.598,1.085-4.486,3.835-4.486,6.923c0,4.154,2.987,7.843,7.069,7.843
      c1.858,0,3.187-0.255,4.372-1c0.254-0.239,1.676-1.39,1.701-1.634c0-0.061-0.211,0.117-0.513,0.293
      c-0.926,0.488-2.312,0.673-3.385,0.692c-2.184,0.043-3.942-1.456-5.077-3.215c-0.745-1.146-1.207-2.451-1.32-3.848
      c-0.19-2.144,0.339-4.621,2.757-5.228c1.631-0.41,3.153,0.493,3.753,2.049c0.267,0.724,0.105,1.083-0.548,1.344l-5.838,2.453
      l1.985,0.125C232.391,17.037,235.038,16.117,237.408,15.135"/>
    <path fill-rule="evenodd" clip-rule="evenodd" fill="#666666" d="M219.428,3.155h4.359c-0.601,0.395-0.806,0.559-1.069,0.964
      c-0.19,0.294-0.236,0.865-0.279,1.361c-0.242,5.834-0.096,11.695-0.137,17.525c0.034,1.592,0.652,1.401,2.718,1.34
      c-0.312,0.268-0.811,0.78-1.197,1.01c-1.873,0-3.646-0.035-5.512-0.035c0.697-0.73,1.064-1.204,1.017-3.012
      c0.03-6.079-0.206-11.923,0.17-17.782c-0.871,0.02-1.67,0.006-2.55,0.035C217.785,4.139,218.56,3.541,219.428,3.155"/>
    <path fill-rule="evenodd" clip-rule="evenodd" fill="#666666" d="M211.531,26.352c0.318,0.228,0.654,0.447,0.982,0.671
      c1.838,1.159,2.429,2.573,2.276,3.885c-0.179,1.583-1.705,2.821-4.291,2.974c-2.779,0.172-6.501-0.922-5.812-4.566
      c0.373-1.943,2.951-2.938,5.068-3.006C210.356,26.292,210.945,26.334,211.531,26.352 M217.802,11.195l-1.869,1.206h-2.117
      c0.9,0.616,1.581,1.53,1.962,2.532c0.399,1.075,0.458,2.265,0.054,3.35c-0.389,1.034-1.174,1.922-2.332,2.591
      c-0.643,0.384-0.987,0.881-1.022,1.341c-0.104,1.361,1.562,2.348,2.519,3.064c2.109,1.571,2.93,4.156,1.528,6.658
      c-1.327,2.371-4.483,3.445-7.853,3.447c-4.171-0.002-6.813-1.924-6.946-4.537c-0.182-3.358,3.275-4.963,6.387-5.333
      c0.877-0.098,1.669-0.083,2.393-0.04c-1.101-0.717-1.517-2.197-0.957-3.189c0.154-0.252,0.063-0.166-0.219-0.127
      c-2.556,0.386-5.183-1.278-5.803-3.801c-0.304-1.269-0.11-2.612,0.374-3.654c1.059-2.265,3.41-3.534,6.02-3.534
      C212.624,11.168,215.144,11.168,217.802,11.195 M213.107,16.726c0.337,2.014-0.179,3.926-2.001,4.439
      c-1.869,0.516-3.926-0.943-4.586-3.531c-0.741-2.857,0.012-4.667,1.776-5.213C210.376,11.763,212.601,13.651,213.107,16.726"/>
    <path fill-rule="evenodd" clip-rule="evenodd" fill="#666666" d="M194.081,10.768c5.004,0,7.62,3.328,7.849,7.23
      c0.233,3.882-2.978,7.356-6.89,7.768c-4.71,0.507-8.83-2.738-8.83-7.483C186.21,14.142,189.754,10.768,194.081,10.768
       M198.806,18.495c0.293,2.852-0.667,5.518-3.223,6.111c-2.631,0.594-5.422-1.578-6.108-5.269
      c-0.768-4.059,0.492-6.735,2.969-7.392C195.384,11.174,198.376,14.131,198.806,18.495"/>
    <path fill-rule="evenodd" clip-rule="evenodd" fill="#666666" d="M176.93,10.768c5.051,0,7.688,3.328,7.928,7.23
      c0.244,3.882-2.998,7.356-6.966,7.768c-4.772,0.507-8.932-2.738-8.932-7.483C168.959,14.142,172.542,10.768,176.93,10.768
       M181.704,18.495c0.289,2.852-0.676,5.518-3.266,6.111c-2.658,0.594-5.474-1.578-6.174-5.269
      c-0.775-4.059,0.503-6.735,3.012-7.392C178.243,11.174,181.264,14.131,181.704,18.495"/>
    <path fill-rule="evenodd" clip-rule="evenodd" fill="#666666" d="M164.34,8.692l2.27-2.335c-3.864-3.191-10.494-3.608-14.888-1.39
      c-3.818,1.938-6.598,5.771-6.729,10.055c-0.156,4.497,2.485,8.074,5.139,9.858c4.391,2.964,11.999,2.313,16.585-0.011
      l-0.018-0.425h0.018v-4.719l1.061-1.257h-6.675l-2.479,1.396l4.808-0.14v4.156c0,0.598,0.008,0.682-0.969,0.999
      c-1.37,0.366-2.913,0.441-4.328,0.32c-4.797-0.407-8.449-4.199-9.317-8.918c-0.833-4.493,1.295-8.738,4.869-10.481
      c1.745-0.854,3.843-1.263,6.117-0.528c1.418,0.444,2.717,1.275,3.842,2.405l-0.788,1.411L164.34,8.692z"/>
  </g>
</g>
<g id="MARK">
  <g>
    <g>
      <radialGradient id="SVGID_1_" cx="85.2798" cy="-5.3174" r="81.9318" gradientUnits="userSpaceOnUse">
        <stop  offset="0" style="stop-color:#0DA960"/>
        <stop  offset="1" style="stop-color:#03914B"/>
      </radialGradient>
      <path fill="url(#SVGID_1_)" d="M101.652,66.299c1.193,1.973,1.218,5.085,0.189,7.226l14.222-23.689
        c1.272-2.122,1.272-5.583,0-7.696L93.078,3.848C91.801,1.737,88.741,0,86.273,0H66.238c-2.464,0-3.446,1.737-2.175,3.848
        l14.31,23.825c0.087,0.12,0.21,0.228,0.285,0.339L101.652,66.299z"/>
      <radialGradient id="SVGID_2_" cx="88.0283" cy="46.0361" r="60.7713" gradientUnits="userSpaceOnUse">
        <stop  offset="0" style="stop-color:#FFCD4D"/>
        <stop  offset="1" style="stop-color:#F6C338"/>
      </radialGradient>
      <path fill="url(#SVGID_2_)" d="M66.238,91.964h20.035c2.468,0,5.528-1.724,6.805-3.85l8.764-14.59
        c1.029-2.14,1.004-5.252-0.189-7.226l-14.59-24.16c1.266,2.113,1.266,5.574,0,7.696L72.835,73.506
        c-0.075,0.159-0.109,0.343-0.188,0.491l-8.734,14.538C63.02,90.447,63.94,91.964,66.238,91.964z"/>
      <linearGradient id="SVGID_3_" gradientUnits="userSpaceOnUse" x1="107.2373" y1="57.8315" x2="81.3654" y2="57.8315">
        <stop  offset="0" style="stop-color:#231F20;stop-opacity:0.2"/>
        <stop  offset="1" style="stop-color:#F1F2F2;stop-opacity:0.25"/>
      </linearGradient>
      <path fill="url(#SVGID_3_)" d="M101.652,66.299l-14.59-24.16c1.266,2.113,1.266,5.574,0,7.696l-5.138,8.561l19.917,15.129
        C102.871,71.384,102.845,68.272,101.652,66.299z"/>
    </g>
    <g>

        <radialGradient id="SVGID_4_" cx="228.416" cy="419.8125" r="81.9346" gradientTransform="matrix(-1 0 0 -1 260.1582 517.0938)" gradientUnits="userSpaceOnUse">
        <stop  offset="0" style="stop-color:#4387FD"/>
        <stop  offset="1" style="stop-color:#4683EA"/>
      </radialGradient>
      <path fill="url(#SVGID_4_)" d="M15.365,25.665c-1.18-1.975-1.219-5.088-0.181-7.227L0.952,42.13c-1.27,2.122-1.27,5.583,0,7.698
        l23,38.286c1.268,2.114,4.332,3.85,6.791,3.85h20.036c2.472,0,3.455-1.736,2.183-3.85L38.645,64.292
        c-0.08-0.123-0.21-0.228-0.281-0.342L15.365,25.665z"/>

        <radialGradient id="SVGID_5_" cx="231.1636" cy="471.1631" r="60.774" gradientTransform="matrix(-1 0 0 -1 260.1582 517.0938)" gradientUnits="userSpaceOnUse">
        <stop  offset="0" style="stop-color:#E04A3F"/>
        <stop  offset="1" style="stop-color:#CD372D"/>
      </radialGradient>
      <path fill="url(#SVGID_5_)" d="M50.779,0H30.744c-2.459,0-5.523,1.726-6.791,3.848l-8.769,14.59
        c-1.038,2.139-0.999,5.252,0.181,7.227l14.599,24.163c-1.272-2.115-1.272-5.577,0-7.698l14.222-23.674
        c0.07-0.158,0.106-0.34,0.198-0.492l8.729-14.535C54.006,1.518,53.077,0,50.779,0z"/>

        <linearGradient id="SVGID_6_" gradientUnits="userSpaceOnUse" x1="250.374" y1="482.959" x2="224.4984" y2="482.959" gradientTransform="matrix(-1 0 0 -1 260.1582 517.0938)">
        <stop  offset="0" style="stop-color:#231F20;stop-opacity:0.2"/>
        <stop  offset="1" style="stop-color:#F1F2F2;stop-opacity:0.25"/>
      </linearGradient>
      <path fill="url(#SVGID_6_)" d="M15.365,25.665l14.599,24.163c-1.272-2.115-1.272-5.577,0-7.698l5.138-8.558L15.184,18.438
        C14.146,20.577,14.185,23.69,15.365,25.665z"/>
    </g>
  </g>
</g>
</svg>
