<?xml version="1.0" encoding="utf-8"?>
<!-- Generator: Adobe Illustrator 18.1.1, SVG Export Plug-In . SVG Version: 6.00 Build 0)  -->
<svg version="1.1" id="Layer_1" xmlns="http://www.w3.org/2000/svg" xmlns:xlink="http://www.w3.org/1999/xlink" x="0px" y="0px"
	 viewBox="0 0 612 792" enable-background="new 0 0 612 792" xml:space="preserve">
<g>
	<path fill="#5087E8" d="M189,401c0-2.3,0-4.7,0-7c1.4-0.1,2-0.9,1.9-2.3c0.4-2.1,1.2-3.9,2.7-5.3c1.6,1.4-0.3,3.8,1.8,5.1
		c-1-2.5,5.1-5.2-0.5-7.6c3.9-7.9,8.6-15.4,13.2-22.9c4.6-0.7,9.2,0,13.8,0c13.3,0,26.5-0.2,39.8,0.1c4.9,0.1,9.9,0.9,12.7,6.1
		c-0.1,0.3-0.1,0.5-0.2,0.8c-0.9,0.4-1.2,1.2-1.2,2.1c-0.2,0.3-0.5,0.7-0.7,1c-2.3-0.1-2.3,1.4-2.1,3l0-0.1c-1,0.3-1.2,1.1-1.1,2
		c0,0,0,0,0,0c-2.3-0.3-1.8,2.2-3.1,2.9c-3,1.6-7.2,1.5-8,6c-4.3-1.3-7.8,2.7-12,2c-1.7-1.6-2.6-1.1-3,1c-1.4,1.4-3.2,1.6-5,2
		c-0.5-0.8-1.3-2.2-2.1-1.5c-1.3,1-2.4,2.6-0.9,4.5c0,2-0.1,3.9,0,5.9c0.1,1.6-0.8,3.9,2.2,4l-0.1,0c0.4,0.3,0.9,0.7,1.3,1
		c0.5,0.1,1.1,0.3,1.6,0.4c0.1,1.2,0.8,1.7,2,1.8c0.3,1,0.7,2,1,3c0,1.8-0.3,3.8,1.7,4.8c3.1,1.6,1.8,3.1,0.1,4.9
		c-1.7,1.9-3.8,2.3-6.2,2.3c-9.9-0.1-19.9,0-29.8-0.1c-2.2,0-4.3,0-6.2,1.2C197.4,415.5,195,407.1,189,401z"/>
	<path fill="#5087E8" d="M426,399c-4.3,7.7-8.6,15.5-13,23.2c-0.6,1-1.3,1.9-2,2.8c-9.4-9-19.2-17.5-28-27c-0.7-1-1.3-2-2-3
		c0.9-2.8,2.7-3.6,5.3-2.1c0.9,0.5,1.8,1.4,2.7,0.9c5.6-3.3,11.6-1.2,17.4-1.7c3.2-0.3,6.3,0.5,9.1-2.4c1.6-1.6,5.1-1.7,6.5,1.8
		c0.4,1.1,1.2,1.5,2.3,1.5c1.1,0.8,0.3,2.5,1.7,3.1C426,397,426,398,426,399z"/>
	<path fill="#4E88ED" d="M189,392c0.6-0.1,1.3-0.2,1.9-0.3c0.1,1.4-0.5,2.2-1.9,2.3C189,393.3,189,392.7,189,392z"/>
	<path fill="#4E88ED" d="M256,291.9c34.4,0,68.7,0,103.1,0c9.9,2.4,14.5,10.2,19.1,18.2c14.5,25.4,29.2,50.6,43.8,75.8
		c1.2,2.1,2.5,4.3,2.3,7c-1.1,0-1.8-0.3-2.3-1.5c-1.3-3.5-4.9-3.3-6.5-1.8c-2.9,2.8-6,2-9.1,2.4c-5.8,0.6-11.9-1.6-17.4,1.7
		c-0.9,0.5-1.8-0.4-2.7-0.9c-2.6-1.4-4.4-0.6-5.3,2.1c-1.5,0.2-2-1.3-2.9-2c-0.2-0.1-0.3-0.3-0.2-0.5c-0.2-0.8-0.7-1.3-1.5-1.4
		c-0.5-0.1-0.9-0.1-1.4-0.2c-7.6-7.7-15.1-15.5-22.7-23.1c-9.4-9.5-18.8-19-28.5-28.2c-2.8-2.6-5.2-5.8-8.8-7.5
		c-0.5-1.2-1.4-2-2.8-2c-0.1-0.6-0.2-1.2-0.3-1.7c0-1.1-0.2-2-1.5-2.2c-2.6,0.2-6-1.4-7.3,2.4c-1.9,6-4.3,11.8-5.2,18.1
		c0.5,1.6,1.8,1.4,3,1.4c0.3,1.3,0.7,2.7,1,4c0,0.4,0,0.8,0,1.1c-10.6,1.9-19.4,7.3-27.6,14c-2.7-5.1-7.7-6-12.7-6.1
		c-13.3-0.2-26.5-0.1-39.8-0.1c-4.6,0-9.2-0.7-13.8,0c9.3-16.3,18.6-32.6,28-48.9c1.1-1.9,2.3-3.7,3.2-5.6
		C242.8,299.2,248,294,256,291.9z"/>
	<path fill="#4A7DD7" d="M383,398c8.8,9.5,18.6,18.1,28,27c-6.9,12.1-13.6,24.3-20.6,36.3c-3.3,5.7-6.1,11.7-10.3,16.9
		c-1.2-1.6-3-1.1-4.6-1.1c-16.8,0-33.5-0.1-50.3,0c-2.4,0-4.9,0.7-7.3,1c-1.9,0.2-1.8,1.6-1.9,3c-1.2-0.9-2.6-1.6-3.6-2.6
		c-21.3-22.4-43.6-43.8-65.3-65.8c-1.3-1.3-2.7-2.4-4.1-3.6c-0.3-1-0.7-2-1-3c5-0.6,10.1,1.1,15-1c0-0.4,0-0.7,0-1.1
		c0.1-0.7,0.1-1.3,0.2-2c0.1-0.1,0.3-0.2,0.3-0.3c-0.1-0.2-0.3-0.4-0.4-0.7c-0.5-5-0.5-10,0.8-14.9c2.5-0.4,2.7,3.3,5.2,2.8
		c0.1,1.4-0.4,3.1,1.2,4.1c0,2.8,0,5.6,0,8.4c0.1,0.5,0.3,1,0.4,1.4c3.8,18.8,15,30.7,33.3,36c0.7,1.6,2,2,3.7,2
		c3.7,0,7.5,0.6,11-0.2c6-1.4,12.7-1.2,17.3-6.5c1-0.8,2.1-1.6,3.1-2.3c1.5,0,3,0,2.8-2.2l0,0.1c0.4-0.4,0.7-0.7,1.1-1.1l-0.1,0.1
		c0.4-0.4,0.7-0.7,1.1-1.1l-0.1,0.1c0.4-0.4,0.7-0.7,1.1-1.1l-0.1,0.1c0.3-0.4,0.7-0.8,1-1.3c0.2-0.3,0.5-0.5,0.7-0.8
		c0.8-0.2,1.2-0.7,1.3-1.5c9.7-12.6,10.9-26.5,6.9-41.4c4.5,1.2,9.6,1,13.2,4.9c-1.5,1.3-4.1-3.4-5,1c-0.4,4.6,0.7,9.3-0.8,13.9
		c-0.5,1.5,0.4,2.1,1.8,2.2c0,0,0-0.1,0-0.1c-0.1,2.1,1.4,2.1,2.9,2.1c3.7,0,7.3,0,11,0c1.5,0,3.5,0.7,4-1.8c2.7-1.3,2-4,2.5-6.2
		C380,398,381.5,398,383,398z"/>
	<path fill="#5086E5" d="M243,409c1.4,1.2,2.8,2.3,4.1,3.6c21.7,22,44,43.4,65.3,65.8c1,1.1,2.4,1.8,3.6,2.6c0,0,0,0,0,0
		c2.6,3.4,5.6,6.4,9,9c0.3,0.3,0.7,0.7,1,1c0.7,1.3,1.7,2.3,3,3c1.1,2.7,4.6,3.7,5,6.8c-26,0.1-52,0.2-78.1,0.2
		c-9.3-2.5-13.9-9.7-18.4-17.6c-10.8-19.4-22.2-38.5-33.3-57.8c-0.7-1.1-1.2-2.4-1.7-3.6c1.9-1.2,4.1-1.2,6.2-1.2
		c9.9,0,19.9,0,29.8,0.1c2.4,0,4.5-0.4,6.2-2.3c1.7-1.8,3-3.3-0.1-4.9C242.7,412.8,243,410.8,243,409z"/>
	<path fill="#4E88ED" d="M263,389c-2.5,0.5-2.7-3.2-5.2-2.8c0,0,0,0,0,0c0-0.4,0.1-0.8,0.1-1.2c0.8-4.5,5.1-4.4,8-6
		C265,382.3,264,385.7,263,389z"/>
	<path fill="#5086E5" d="M258,385c0,0.4-0.1,0.8-0.1,1.2c-7.2,1.5-14.3,3.3-20.8,6.9l-0.1-0.2c0.4-1,0.7-1.9,1.1-2.9
		c1.8-0.4,3.6-0.6,5-2c1.1,0,2.3,0.2,3-1C250.2,387.7,253.7,383.7,258,385z"/>
	<path fill="#5C8AE2" d="M263,389c1-3.3,2-6.7,3-10c1.3-0.7,0.8-3.3,3.1-2.9c-2.3,5.5-4,11.1-4.9,17
		C262.6,392.1,263.1,390.4,263,389z"/>
	<path fill="#3D72D4" d="M240,404.3c4.3,0,8.7,0,13,0c1.2,1.1,2.6,0.6,4,0.8c-4.9,2.1-10,0.4-15,1C240.8,406,240.1,405.5,240,404.3z
		"/>
	<path fill="#5086E5" d="M237.1,393.1c0,3.3,0.1,6.5,0.1,9.8c-2.9-0.1-2.1-2.4-2.2-4c-0.1-1.9,0-3.9,0-5.9c0.6,0,1.3-0.1,1.9-0.1
		L237.1,393.1z"/>
	<path fill="#4E88ED" d="M193.6,386.4c0.4-0.8,0.9-1.6,1.3-2.5c5.6,2.4-0.4,5,0.5,7.6C193.3,390.1,195.2,387.8,193.6,386.4z"/>
	<path fill="#4E88ED" d="M236.9,392.9c-0.6,0-1.3,0.1-1.9,0.1c-1.5-1.9-0.3-3.5,0.9-4.5c0.8-0.7,1.6,0.7,2.1,1.5
		C237.6,391,237.3,391.9,236.9,392.9z"/>
	<path fill="#4E88ED" d="M246,387c-0.7,1.2-1.9,1-3,1C243.4,385.9,244.3,385.4,246,387z"/>
	<path fill="#5C8AE2" d="M272.3,371.1c-0.4,1.2-1.1,2.3-2.1,3C269.9,372.5,270,371,272.3,371.1z"/>
	<path fill="#5C8AE2" d="M274.2,368c0.1,1-0.4,1.6-1.2,2.1C273,369.2,273.2,368.4,274.2,368z"/>
	<path fill="#5C8AE2" d="M270.2,374.1c-0.4,0.7-0.7,1.3-1.1,2C269,375.2,269.2,374.4,270.2,374.1z"/>
	<path fill="#5C8AE2" d="M237.1,402.8c0.4,0.3,0.9,0.7,1.3,1C238,403.5,237.5,403.2,237.1,402.8z"/>
	<path fill="#4A7BD2" d="M326,491c-0.3-0.3-0.7-0.7-1-1c-1.2-7.1-3-8.9-9-9c0,0,0,0,0,0c0-1.3,0-2.7,1.9-3c2.4-0.3,4.9-1,7.3-1
		c16.8-0.1,33.5-0.1,50.3,0c1.6,0,3.4-0.5,4.6,1.1c-4.3,9.7-9,19.1-20.1,22.9c-8.7-0.1-17.3-0.1-26-0.2c-0.4-3.2-3.9-4.2-5-6.8
		C329.2,491.8,328.2,490.8,326,491z"/>
	<path fill="#4B7FDC" d="M383,398c-1.5,0-3,0-4.5,0c-0.1-1.7-0.2-3.3-0.3-5c0.9,0.7,1.3,2.2,2.9,2C381.7,396,382.3,397,383,398z"/>
	<path fill="#4B7FDC" d="M339.8,367c-0.6-0.6-1.2-1.3-1.8-1.9c-0.4-0.4-0.7-0.7-1.1-1.1c0,0,0.1,0.1,0.1,0.1c-0.5-0.3-0.9-0.7-1.4-1
		c-0.2-0.2-0.5-0.4-0.7-0.6c-0.1-0.5,0.1-1.4-0.9-0.6c-6.4-4.5-13.6-7.2-21.3-8.7c0.7-0.1,1.5-0.3,2.2-0.4c-3,0.5-6.2-4.5-9,0.2
		c-0.7,0-1.3,0-2,0c-0.4-0.8-1.2-1-2-1c-0.3-1.3-0.7-2.7-1-4c3.5-1.8,7.6,0.1,11-2c1,0.1,2,0.2,3.1,0.3c0.5,0.7,1,0.8,1.7,0.3
		c0.4-0.2,0.9-0.4,1.3-0.6c2.1-0.3,1-1.5,0.7-2.5c-1.2-3.9-3.6-7.3-3.8-11.5c3.6,1.7,6,4.9,8.8,7.5c9.7,9.2,19,18.8,28.5,28.2
		c7.6,7.7,15.2,15.4,22.7,23.1c-4.7-0.2-8.3-3.7-13-4c-3.5-3.9-8.6-3.7-13.2-4.9c-2.3-4.2-4.6-8.3-6.9-12.5c-0.4-0.5-0.7-1-1.1-1.5
		c0,0,0.1,0.1,0.1,0.1C340.6,367.8,340.2,367.4,339.8,367z"/>
	<path fill="#4A7BD2" d="M318.1,346c-2-5.3-3.9-10.7-5.9-16c1.4,0,2.2,0.8,2.8,2c0.1,4.2,2.6,7.7,3.8,11.5
		C319.1,344.5,320.2,345.7,318.1,346z"/>
	<path fill="#3D72D4" d="M297.9,346.6c4.7-1,9.3-1.1,14.1-0.6c-3.4,2.1-7.6,0.2-11,2C299.7,348,298.4,348.1,297.9,346.6z"/>
	<path fill="#4B7FDC" d="M311.9,328.2c-0.5-0.7-1-1.5-1.5-2.2C311.7,326.3,312,327.2,311.9,328.2z"/>
	<path fill="#3D72D4" d="M302,352c0.8,0,1.6,0.2,2,1c-0.7,0-1.4,0.1-2,0.1C302,352.8,302,352.4,302,352z"/>
	<path fill="#4B7FDC" d="M377.9,392.5c-0.5-0.5-1-1-1.5-1.4C377.2,391.2,377.7,391.7,377.9,392.5z"/>
	<path fill="#4A7BD2" d="M298,439c11.2,2,21.7-0.2,31.9-4.7c-4.5,5.3-11.3,5.1-17.3,6.5c-3.5,0.8-7.3,0.1-11,0.2
		C300,441,298.7,440.6,298,439z"/>
	<path fill="#4C7ED8" d="M357,387.9c2.8,5.2,1.5,10.6,1.1,16c-1.4-0.1-2.3-0.7-1.8-2.2C357.7,397.2,356.6,392.5,357,387.9z"/>
	<path fill="#3D72D4" d="M361,404.3c5,0,10-0.1,14.9-0.1c-0.5,2.4-2.5,1.7-4,1.8c-3.7,0.1-7.3,0-11,0C361,405.4,361,404.9,361,404.3
		z"/>
	<path fill="#4C7ED8" d="M361,404.3c0,0.6,0,1.1,0,1.7c-1.5,0-3,0-2.9-2.1C359.1,404,360,404.2,361,404.3z"/>
	<path fill="#3D72D4" d="M333,432c0.4-1.4,1.4-2.1,2.8-2.2C336.1,432,334.6,432,333,432z"/>
	<path fill="#5C8AE2" d="M257,405c-1.3-0.2-2.8,0.4-4-0.8c1.3-0.1,2.6-0.2,3.9-0.3C257,404.3,257,404.7,257,405z"/>
	<path fill="#3D72D4" d="M335.8,429.9c0.4-0.4,0.7-0.7,1.1-1.1C336.6,429.2,336.2,429.6,335.8,429.9z"/>
	<path fill="#3D72D4" d="M336.9,428.9c0.4-0.4,0.7-0.7,1.1-1.1C337.6,428.2,337.2,428.6,336.9,428.9z"/>
	<path fill="#3D72D4" d="M340.6,424.9c0.4-0.5,0.9-1,1.3-1.5C341.8,424.2,341.4,424.7,340.6,424.9z"/>
	<path fill="#3D72D4" d="M337.9,428c0.4-0.4,0.7-0.7,1.1-1.1C338.6,427.2,338.2,427.6,337.9,428z"/>
	<path fill="#3D72D4" d="M338.9,427c0.3-0.4,0.7-0.8,1-1.3C339.6,426.1,339.2,426.5,338.9,427z"/>
	<path fill="#5C8AE2" d="M257.2,402c0-0.3-0.1-0.6-0.1-1c0.1,0.2,0.3,0.4,0.4,0.7C257.5,401.7,257.3,401.9,257.2,402z"/>
	<path fill="#5C8AE2" d="M264.3,401.5c0.1,0.5,0.3,1,0.4,1.4C264.5,402.5,264.4,402,264.3,401.5z"/>
	<path fill="#4A7DD7" d="M316,481c6,0.1,7.8,1.9,9,9C321.6,487.4,318.6,484.4,316,481z"/>
	<path fill="#4A7DD7" d="M326,491c2.2-0.2,3.2,0.8,3,3C327.7,493.3,326.6,492.3,326,491z"/>
	<path fill="#4C7ED8" d="M340.3,396.5c0.6,18.1-15.6,32.4-32.5,32.7c-17,0.3-33.4-15.7-33-32.8c0.4-16.4,13.9-31.5,28.5-32.6
		C326.1,362.1,341,380.1,340.3,396.5z M298.1,385c-0.4,0.3-0.7,0.7-1.1,1c-0.6,0.7-1.2,1.3-1.8,2c-2.5,0.1-2.1,1.9-2.1,3.5l0.1,0.2
		L293,392c-2.3,0.5-2.7,1.5-0.8,3.1c0,1-0.1,1.9-0.1,2.9c-1.1,0.7-1,1.4,0.1,2.1c0,0.6-0.1,1.2-0.1,1.8c0,2.4,0.2,4.7,3.2,5.2
		c2.3,1.4,0.5,2.3-0.3,3.4c-0.6,0.8-2.4,1.5-1.1,2.7c2.6,2.5,5.5,5.2,9,5.5c17.8,1.7,28.2-9.3,26-26.9c-0.4-3.5-2.7-6-4.8-8.3
		c-1.9-2.2-3,2.2-5.1,1.4c-0.3-0.1-0.7-0.1-1-0.1c-0.4-0.3-0.8-0.5-1.2-0.8l0.1,0.1c-0.3-1-1.1-1.2-2-1.1l0.1,0
		c-0.5-0.3-1.1-0.7-1.6-1c-0.5,0-0.9,0-1.4,0c-3.4-3.7-6.6-2.3-9.8,0.3l0.1-0.1c-0.4,0.3-0.8,0.6-1.2,0.9c-0.6,0.3-1.1,0.6-1.7,0.9
		C298.9,384.4,298.5,384.8,298.1,385L298.1,385z"/>
	<path fill="#3D72D4" d="M306,353c2.7-4.7,6,0.3,9-0.2c-0.7,0.1-1.5,0.3-2.2,0.4C310.5,353.1,308.2,353,306,353z"/>
	<path fill="#3D72D4" d="M339.8,367c0.4,0.4,0.8,0.7,1.2,1.1C340.6,367.8,340.2,367.4,339.8,367z"/>
	<path fill="#3D72D4" d="M340.9,368c0.4,0.5,0.7,1,1.1,1.5C341.6,369,341.2,368.5,340.9,368z"/>
	<path fill="#3D72D4" d="M336.9,364c0.4,0.4,0.7,0.7,1.1,1.1C337.6,364.8,337.2,364.4,336.9,364z"/>
	<path fill="#3D72D4" d="M335.6,363.1c0.5,0.3,0.9,0.7,1.4,1C336.5,363.8,336.1,363.4,335.6,363.1z"/>
	<path fill="#3D72D4" d="M334,361.9c1-0.7,0.8,0.2,0.9,0.6C334.6,362.3,334.3,362.1,334,361.9z"/>
	<path fill="#4A7BD2" d="M315.1,346.3c0.6,0.1,1.1,0.2,1.7,0.3C316.1,347.1,315.5,347,315.1,346.3z"/>
	<path fill="#4A7BD2" d="M312,382.1c-3.3,0.1-6.6,0.2-9.8,0.3C305.4,379.8,308.6,378.4,312,382.1z"/>
	<path fill="#3D72D4" d="M292,401.9c1.9,1.2,2.3,3.4,3.2,5.2C292.2,406.6,292.1,404.2,292,401.9z"/>
	<path fill="#3D72D4" d="M293,392c-0.3,1-0.6,2.1-0.8,3.1C290.4,393.5,290.7,392.5,293,392z"/>
	<path fill="#3D72D4" d="M295.2,388.1c-0.7,1.2-1.4,2.3-2.1,3.5C293.1,389.9,292.7,388.1,295.2,388.1z"/>
	<path fill="#3D72D4" d="M292.1,398c0,0.7,0,1.4,0.1,2.1C291,399.4,290.9,398.7,292.1,398z"/>
	<path fill="#4A7BD2" d="M316.9,384.2c-0.7-0.4-1.4-0.7-2-1.1C315.8,383,316.6,383.2,316.9,384.2z"/>
	<path fill="#4A7BD2" d="M302.2,382.2c-0.4,0.3-0.8,0.6-1.2,0.9C301.4,382.9,301.8,382.5,302.2,382.2z"/>
	<path fill="#4A7BD2" d="M315,383.1c-0.5-0.3-1.1-0.7-1.6-1C313.9,382.5,314.4,382.8,315,383.1z"/>
	<path fill="#4A7BD2" d="M299.4,384.1c-0.5,0.3-0.9,0.7-1.4,1C298.5,384.8,298.9,384.4,299.4,384.1z"/>
	<path fill="#4A7BD2" d="M318,384.9c-0.4-0.3-0.8-0.5-1.2-0.8C317.2,384.4,317.6,384.6,318,384.9z"/>
	<path fill="#4A7BD2" d="M298.1,385c-0.4,0.3-0.7,0.7-1.1,1C297.4,385.7,297.7,385.4,298.1,385z"/>
	<path fill="#4A7DD7" d="M314.1,390c4.1,5.7,3.6,11.3-1.3,14.8c-4.1,2.9-8.9,1.6-12.9-3.5c0-3.4,0-6.9,0-10.3c0,0,0,0.1,0,0.1
		c0.3-0.4,0.7-0.7,1-1.1c0,0-0.1,0.1-0.1,0.1c0.4-0.4,0.7-0.7,1.1-1.1c0,0-0.1,0-0.1,0c0.9,0.1,1.7-0.1,2.1-1.1c0,0-0.1,0.1-0.1,0.1
		c2.1,0,4.2,0,6.3,0c0.3,0,0.6,0,0.9,0.2c0.5,0.8,1.3,0.9,2.1,0.7c0,0-0.1,0-0.1,0C313.4,389.2,313.8,389.6,314.1,390z"/>
	<path fill="#3D72D4" d="M299.9,390.9c0,3.4,0,6.9,0,10.3C296.5,397.8,297.4,394.3,299.9,390.9z"/>
	<path fill="#3D72D4" d="M310.2,387.9c-2.1,0-4.2,0-6.3,0C306,386.5,308.1,386,310.2,387.9z"/>
	<path fill="#3D72D4" d="M313.2,388.8c-0.8,0.1-1.6,0.1-2.1-0.7C311.9,388,312.7,387.8,313.2,388.8z"/>
	<path fill="#3D72D4" d="M304,387.9c-0.4,1-1.2,1.1-2.1,1.1C302.3,388,303.2,388,304,387.9z"/>
	<path fill="#3D72D4" d="M301.9,388.9c-0.4,0.4-0.7,0.7-1.1,1.1C301.2,389.6,301.6,389.2,301.9,388.9z"/>
	<path fill="#3D72D4" d="M314.1,390c-0.4-0.4-0.7-0.8-1.1-1.1C313.4,389.2,313.8,389.6,314.1,390z"/>
	<path fill="#3D72D4" d="M300.9,389.8c-0.3,0.4-0.7,0.7-1,1.1C300.2,390.6,300.6,390.2,300.9,389.8z"/>
</g>
</svg>
