<?xml version="1.0" encoding="utf-8"?>
<!-- Generator: Adobe Illustrator 17.0.2, SVG Export Plug-In . SVG Version: 6.00 Build 0)  -->
<!DOCTYPE svg PUBLIC "-//W3C//DTD SVG 1.1//EN" "http://www.w3.org/Graphics/SVG/1.1/DTD/svg11.dtd">
<svg version="1.1" xmlns="http://www.w3.org/2000/svg" xmlns:xlink="http://www.w3.org/1999/xlink" x="0px" y="0px" width="96px"
	 height="96px" viewBox="0 0 96 96" enable-background="new 0 0 96 96" xml:space="preserve">
<g id="Label">
</g>
<g id="Icon">
	<g>
		<rect fill="none" width="96" height="96"/>
		<g>
			<g>
				<path fill="#E92706" d="M94.98,28.84c0,0-0.94-6.6-3.81-9.5c-3.64-3.81-7.72-3.83-9.59-4.05c-13.4-0.97-33.52-0.85-33.52-0.85
					s-20.12-0.12-33.52,0.85c-1.87,0.22-5.95,0.24-9.59,4.05c-2.87,2.9-3.81,9.5-3.81,9.5S0.18,36.58,0,44.33v7.26
					c0.18,7.75,1.14,15.49,1.14,15.49s0.93,6.6,3.81,9.5c3.64,3.81,8.43,3.69,10.56,4.09c7.53,0.72,31.7,0.89,32.54,0.9
					c0.01,0,20.14,0.03,33.54-0.94c1.87-0.22,5.95-0.24,9.59-4.05c2.87-2.9,3.81-9.5,3.81-9.5s0.96-7.75,1.02-15.49v-7.26
					C95.94,36.58,94.98,28.84,94.98,28.84z"/>
				<polygon fill="#FAFAFA" points="38.28,34.41 38.28,61.41 64.02,47.91 				"/>
				<g id="shadow_1_">
					<g>
						<radialGradient id="SVGID_2_" cx="38.1555" cy="34.4818" r="29.0459" gradientUnits="userSpaceOnUse">
							<stop  offset="0" style="stop-color:#262626;stop-opacity:0.4"/>
							<stop  offset="1" style="stop-color:#262626;stop-opacity:0.05"/>
						</radialGradient>
						<path fill-rule="evenodd" clip-rule="evenodd" fill="url(#SVGID_2_)" d="M38.28,34.41l22.6,15.17l3.14-1.65L38.28,34.41z"/>
					</g>
				</g>
				<path fill="#FFFFFF" fill-opacity="0.2" d="M94.98,28.84c0,0-0.94-6.6-3.81-9.5c-3.64-3.81-7.72-3.83-9.59-4.05
					c-13.4-0.97-33.52-0.85-33.52-0.85s-20.12-0.12-33.52,0.85c-1.87,0.22-5.95,0.24-9.59,4.05c-2.87,2.9-3.81,9.5-3.81,9.5
					S0.18,36.58,0,44.33v0.5c0.18-7.75,1.14-15.49,1.14-15.49s0.93-6.6,3.81-9.5c3.64-3.81,7.72-3.83,9.59-4.05
					c13.4-0.97,33.52-0.85,33.52-0.85s20.12-0.12,33.52,0.85c1.87,0.22,5.95,0.24,9.59,4.05c2.87,2.9,3.81,9.5,3.81,9.5
					s0.96,7.75,1.02,15.49v-0.5C95.94,36.58,94.98,28.84,94.98,28.84z"/>
				<path fill="#3E2723" fill-opacity="0.2" d="M94.98,67.16c0,0-0.94,6.6-3.81,9.5c-3.64,3.81-7.72,3.83-9.59,4.05
					c-13.4,0.97-33.52,0.85-33.52,0.85s-20.12,0.12-33.52-0.85c-1.87-0.22-5.95-0.24-9.59-4.05c-2.87-2.9-3.81-9.5-3.81-9.5
					S0.18,59.42,0,51.67v-0.5c0.18,7.75,1.14,15.49,1.14,15.49s0.93,6.6,3.81,9.5c3.64,3.81,7.72,3.83,9.59,4.05
					c13.4,0.97,33.52,0.85,33.52,0.85s20.12,0.12,33.52-0.85c1.87-0.22,5.95-0.24,9.59-4.05c2.87-2.9,3.81-9.5,3.81-9.5
					s0.96-7.75,1.02-15.49v0.5C95.94,59.42,94.98,67.16,94.98,67.16z"/>
				<polygon fill="#FFFFFF" fill-opacity="0.2" points="38.28,61.41 38.28,61.91 64.02,48.41 64.02,47.91 				"/>
				<polygon fill="#3E2723" fill-opacity="0.2" points="38.28,34.41 38.28,33.91 64.02,47.41 64.02,47.91 				"/>
			</g>
			<radialGradient id="SVGID_5_" cx="5.186" cy="19.205" r="103.6234" gradientUnits="userSpaceOnUse">
				<stop  offset="0" style="stop-color:#FFFFFF"/>
				<stop  offset="1" style="stop-color:#FFFFFF;stop-opacity:0"/>
			</radialGradient>
			<path fill="url(#SVGID_5_)" fill-opacity="0.1" d="M94.98,28.84c0,0-0.94-6.6-3.81-9.5c-3.64-3.81-7.72-3.83-9.59-4.05
				c-13.4-0.97-33.52-0.85-33.52-0.85s-20.12-0.12-33.52,0.85c-1.87,0.22-5.95,0.24-9.59,4.05c-2.87,2.9-3.81,9.5-3.81,9.5
				S0.18,36.58,0,44.33v7.26c0.18,7.75,1.14,15.49,1.14,15.49s0.93,6.6,3.81,9.5c3.64,3.81,8.43,3.69,10.56,4.09
				c7.53,0.72,31.7,0.89,32.54,0.9c0.01,0,20.14,0.03,33.54-0.94c1.87-0.22,5.95-0.24,9.59-4.05c2.87-2.9,3.81-9.5,3.81-9.5
				s0.96-7.75,1.02-15.49v-7.26C95.94,36.58,94.98,28.84,94.98,28.84z"/>
		</g>
	</g>
</g>
</svg>
